<?xml version="1.0" standalone="no"?>
<!DOCTYPE svg PUBLIC "-//W3C//DTD SVG 1.1//EN" "http://www.w3.org/Graphics/SVG/1.1/DTD/svg11.dtd" >
<svg>
<metadata>
Created by FontForge 20090622 at Fri Feb 22 16:55:55 2019
 By ffonts
&#194;&#169; 2019 Juan Miguel Castillo
</metadata>
<defs>
<font id="DraperRegular" horiz-adv-x="1009" >
  <font-face 
    font-family="Draper"
    font-weight="400"
    font-stretch="normal"
    units-per-em="1000"
    panose-1="0 0 0 0 0 0 0 0 0 0"
    ascent="800"
    descent="-200"
    x-height="696.09"
    cap-height="696.09"
    bbox="-19.999 -173.851 1654.83 838.38"
    underline-thickness="0"
    underline-position="0"
    unicode-range="U+000A-U+2260"
  />
<missing-glyph horiz-adv-x="527" 
d="M50 700h427v-700h-427v700zM78 680l185 -309l186 309h-371zM251 350l-180 300v-601zM264 329l-185 -308h370zM276 350l181 -303v605z" />
    <glyph glyph-name=".notdef" horiz-adv-x="527" 
d="M50 700h427v-700h-427v700zM78 680l185 -309l186 309h-371zM251 350l-180 300v-601zM264 329l-185 -308h370zM276 350l181 -303v605z" />
    <glyph glyph-name=".null" horiz-adv-x="0" 
 />
    <glyph glyph-name=".null" horiz-adv-x="0" 
 />
    <glyph glyph-name="controlLF" unicode="&#xa;" horiz-adv-x="0" 
 />
    <glyph glyph-name="controlCR" unicode="&#xd;" horiz-adv-x="0" 
 />
    <glyph glyph-name="space" unicode=" " horiz-adv-x="400" 
 />
    <glyph glyph-name="exclam" unicode="!" horiz-adv-x="321" 
d="M254.65 186.401h-189.425v524.416h189.425v-524.416zM159.933 152.127c60.7168 0 109.943 -36.8164 109.933 -82.2197c0 -45.4033 -49.2158 -82.2188 -109.933 -82.2188s-109.933 36.8047 -109.933 82.2197c0 45.4033 49.2158 82.2188 109.933 82.2188z" />
    <glyph glyph-name="quotedbl" unicode="&#x22;" horiz-adv-x="382" 
d="M0 475.83v220.27h140.65l-40.04 -192.18zM190.95 696.1h140.65l-40.04 -192.18l-100.61 -28.0898v220.27z" />
    <glyph glyph-name="numbersign" unicode="#" horiz-adv-x="524" 
d="M524.42 404.64h-71.1504v-112.77h71.1504v-134.68h-71.1504v-71.1504h-134.68v71.1504h-112.77v-71.1504h-134.67v71.1504h-71.1504v134.68h71.1504v112.77h-71.1504v134.67h71.1504v71.1504h134.67v-71.1504h112.77v71.1504h134.68v-71.1504h71.1504v-134.67z
M318.59 291.87v112.77h-112.77v-112.77h112.77z" />
    <glyph glyph-name="dollar" unicode="$" horiz-adv-x="521" 
d="M471.13 278.52c1.38965 -46.9004 -46.4102 -106.829 -192.53 -117.619v-69.3799h-86.0303v70.1104c-109.86 11.04 -176.58 60 -192.57 78.0498l81.9902 38.7402c16.9004 -17.7402 59.2803 -32.2598 110.57 -38.0996v74.3398
c-115.96 6.25977 -176.37 54.9297 -177.811 103.21c-0.629883 21.6104 8.96973 62.2305 76.5 91.4307c28.4404 12.2998 63.5 20.9199 101.32 24.9902v70.2803h86.0303v-69.1602c10.4199 -0.870117 20.71 -2.03027 30.7803 -3.64062
c54.3301 -8.69043 105.68 -31.2305 149.1 -65.0205c4.74023 -3.69043 8.98047 -7.27051 12.1602 -10.4609l-82.3398 -39.0303c-4 3.20996 -42.3604 31.8799 -109.71 40.3096v-72.5996c143.99 -10.25 191.03 -55.7002 192.54 -106.45zM114.51 419.36
c0.599609 -20.2305 38.96 -27.54 78.0596 -30.54v68c-43.21 -5.40039 -78.6396 -17.75 -78.0596 -37.46zM278.59 239.051c58.71 4.75977 93.3301 19.8408 92.79 37.9805c-0.480469 16.1797 -13.04 32.0293 -92.79 35.9893v-73.9697z" />
    <glyph glyph-name="percent" unicode="%" horiz-adv-x="706" 
d="M506.155 696.1h166.651l-473.261 -696.096h-166.685zM164.252 415.429c-90.709 0 -164.253 69.3926 -164.253 154.986s73.5439 154.976 164.253 154.976s164.253 -69.3818 164.253 -154.986c0 -85.5938 -73.5439 -154.976 -164.253 -154.976zM164.252 623.476
c-27.6475 0 -50.0586 -23.7588 -50.0586 -53.0713s22.4111 -53.0713 50.0586 -53.0713s50.0586 23.7588 50.0586 53.0713s-22.4111 53.0713 -50.0586 53.0713zM541.415 281.069c90.709 0 164.253 -69.3818 164.253 -154.976s-73.5332 -154.976 -164.253 -154.976
s-164.253 69.3818 -164.253 154.976s73.5439 154.976 164.253 154.976zM541.415 73.0225c27.6475 0 50.0586 23.7588 50.0586 53.0713s-22.4111 53.0713 -50.0586 53.0713s-50.0586 -23.7588 -50.0586 -53.0713s22.4111 -53.0713 50.0586 -53.0713z" />
    <glyph glyph-name="ampersand" unicode="&#x26;" horiz-adv-x="686" 
d="M439.063 409.335l246.966 49.2686v-130.241l-28.6445 -5.71777v-112.266c0 -116.133 -122.957 -210.271 -274.624 -210.271h-108.136c-151.667 0 -274.624 94.1377 -274.624 210.271c0 59.874 32.7412 113.854 85.1885 152.149
c-32.8838 34.6689 -52.3271 77.29 -52.3271 123.406c0 116.133 122.957 210.271 274.624 210.271h241.27v-130.515h-240.251c-55.0322 0 -99.8008 -35.7754 -99.8008 -79.7549c0 -39.8721 37.2539 -73.8291 86.6777 -78.999l0.711914 -0.0771484h71.2109v-116.725h-91.6621
c-55.0322 0 -99.8008 -35.7861 -99.8008 -79.7549s44.7686 -79.7549 99.8008 -79.7549h106.11c55.0322 0 99.8115 35.7754 99.8115 79.7549v91.2568l-42.501 -8.46777v116.166z" />
    <glyph glyph-name="quotesingle" unicode="'" horiz-adv-x="191" 
d="M0 696.1h140.64l-40.04 -192.18l-100.6 -28.0898v220.27z" />
    <glyph glyph-name="parenleft" unicode="(" horiz-adv-x="285" 
d="M285.245 -59.8184l-134.557 -94.3018c-63.0391 89.9531 -100.688 260.056 -100.688 455.013c0 194.968 37.6484 365.07 100.688 455.023l134.546 -94.3018c-35.3047 -50.377 -70.9268 -181.451 -70.9268 -360.722c0 -179.26 35.6221 -310.334 70.9375 -360.711z" />
    <glyph glyph-name="parenright" unicode=")" horiz-adv-x="285" 
d="M235.24 300.89c0.0195312 -194.94 -37.6299 -365.049 -100.689 -455.009l-134.55 94.2998c35.3203 50.3896 70.9502 181.449 70.9502 360.709s-35.6299 310.34 -70.9502 360.72l134.55 94.3096c63.0596 -89.9697 100.689 -260.069 100.689 -455.029z" />
    <glyph glyph-name="asterisk" unicode="*" horiz-adv-x="454" 
d="M404.28 493.32l-76.1484 -24.749l74.7402 -55.4404l-140.73 -102.25l-62.6904 86.2998l-29.96 -89.1602l-140.73 102.25l48.46 66.6904l-77.2197 0.780273l53.75 165.43l85.0195 -27.6299l-25.2803 80.5596h173.95v-82.2305l63.0898 44.8799z" />
    <glyph glyph-name="plus" unicode="+" horiz-adv-x="371" 
d="M371.06 415.59v-134.68h-118.19v-118.19h-134.68v118.19h-118.19v134.68h118.19v118.19h134.68v-118.19h118.19z" />
    <glyph glyph-name="comma" unicode="," horiz-adv-x="224" 
d="M0 111.09l173.95 0.000976562l-49.5098 -157.74l-124.44 -23.0703v180.81z" />
    <glyph glyph-name="hyphen" unicode="-" horiz-adv-x="371" 
d="M371.06 280.91h-371.06v134.68h371.06v-134.68z" />
    <glyph glyph-name="period" unicode="." horiz-adv-x="242" 
d="M95.8398 160.3c52.9199 0 95.8398 -36.8193 95.8301 -82.2197c0 -45.4004 -42.9102 -82.2207 -95.8301 -82.2207c-52.9297 0 -95.8398 36.8096 -95.8398 82.2197c0 45.4004 42.9102 82.2207 95.8398 82.2207z" />
    <glyph glyph-name="slash" unicode="/" horiz-adv-x="392" 
d="M368.882 696.1l-229.94 -696.1h-116.72l229.98 696.1h116.68z" />
    <glyph glyph-name="zero" unicode="0" horiz-adv-x="960" 
d="M480.432 725.39c237.721 0 430.432 -168.854 430.432 -377.141s-192.711 -377.141 -430.432 -377.141s-430.432 168.854 -430.432 377.141s192.711 377.141 430.432 377.141zM480.432 117.747c129.321 0 234.16 103.196 234.16 230.513
c0 127.306 -104.839 230.502 -234.16 230.502s-234.16 -103.196 -234.16 -230.502c0 -127.316 104.839 -230.513 234.16 -230.513z" />
    <glyph glyph-name="one" unicode="1" horiz-adv-x="416" 
d="M176.418 696.43h189.414v-696.096h-189.414v482.419l-126.407 55.9307z" />
    <glyph glyph-name="two" unicode="2" horiz-adv-x="820" 
d="M230.813 165.285v-20.1855h539.203v-144.996h-719.197l-0.789062 -0.339844v182.447c-0.865234 107.742 91.3115 228.005 327.181 232.518c0 0 0.0771484 0.21875 0.142578 0.21875c182.567 0 228.365 57.2451 228.365 77.126
c0 42.0186 -89.4268 68.3076 -182.775 68.3076c-162.577 0 -206.491 -83.917 -214.038 -92.1875l-158.886 70.2578c75.7129 141.918 258.391 185.448 364.512 186.851c85.3965 1.52246 166.937 -15.8398 229.396 -47.7705c108.881 -55.667 125.739 -138.193 126.09 -182.447
c0.854492 -107.742 -100.063 -232.528 -327.191 -232.528c-135.981 0 -212.012 -32.1387 -212.012 -97.2705z" />
    <glyph glyph-name="three" unicode="3" horiz-adv-x="820" 
d="M533.733 426.442c163.289 -28.4033 236.984 -132.915 236.25 -225.015c-0.350586 -44.2539 -17.209 -126.791 -126.09 -182.447c-62.459 -31.9307 -143.999 -49.293 -229.396 -47.7705c-106.11 1.3916 -288.788 44.9336 -364.501 186.841l145.193 64.2002
l8.59863 -13.4512c45.5137 -58.7021 119.179 -99.4062 219.133 -99.4062c95.627 0 198.55 37.2764 198.55 95.0361c0 24.5254 -39.4883 86.1738 -214.673 92.3955h-135.258v93.9951l200.259 161.065h-354.696v144.317h616.482v-108.859z" />
    <glyph glyph-name="four" unicode="4" horiz-adv-x="820" 
d="M769.985 306.608l0.000976562 -137.131h-81.0254v-169.368h-189.425v169.368h-449.535v108.213l284.537 418.174h213.173l-264.602 -389.256h216.426v244.6h189.425v-244.6h81.0254z" />
    <glyph glyph-name="five" unicode="5" horiz-adv-x="820" 
d="M497.914 431.335c188.406 -18.4463 272.861 -131.315 272.072 -229.911c-0.350586 -44.2539 -17.209 -126.791 -126.09 -182.447c-62.459 -31.9307 -143.999 -49.293 -229.396 -47.7705c-106.11 1.3916 -288.788 44.9336 -364.501 186.841l145.193 64.2002
l8.59863 -13.4512c45.5137 -58.7021 119.179 -99.4062 219.133 -99.4062c95.627 0 198.55 37.2764 198.55 95.0361c0 24.5254 -39.4883 86.1738 -214.673 92.3955c0 0 -80.4893 -1.36914 -132.191 -14.9629h-157.506v414.877l1.07324 -0.537109h615.409v-65.5479
l-97.8398 -78.7695h-361.138v-123.942c113.273 16.5078 223.305 3.39648 223.305 3.39648z" />
    <glyph glyph-name="six" unicode="6" horiz-adv-x="821" 
d="M409.992 435.238c198.823 0 359.987 -103.897 359.987 -232.058s-161.175 -232.058 -359.987 -232.058s-359.987 103.897 -359.987 232.058c0 61.8018 12.5527 101.816 47.2324 154.285l223.93 338.737h207.531l-174.363 -263.736
c18.1396 1.81836 36.7285 2.77148 55.6572 2.77148zM409.992 109.635c97.2266 0 176.039 44.4834 176.039 99.3623s-78.8125 99.3623 -176.039 99.3623s-176.039 -44.4834 -176.039 -99.3623s78.8125 -99.3623 176.039 -99.3623z" />
    <glyph glyph-name="seven" unicode="7" horiz-adv-x="820" 
d="M675.278 696.09l94.708 0.000976562v-107.534l-399.849 -588.222h-213.403l375.454 551.789h-482.188v144.306h625.278v-0.339844z" />
    <glyph glyph-name="eight" unicode="8" horiz-adv-x="820" 
d="M604.846 398.252c99.3184 -41.3066 165.131 -113.219 165.131 -195.077c0 -128.16 -161.175 -232.058 -359.987 -232.058s-359.987 103.897 -359.987 232.058c0 81.8584 65.8105 153.771 165.14 195.077c-59.1289 34.3516 -96.3066 84.0928 -96.3066 139.442
c0 103.656 130.351 187.694 291.153 187.694s291.164 -84.0381 291.164 -187.694c0 -55.3496 -37.1885 -105.091 -96.3066 -139.442zM409.989 597.688c-67.5527 0 -122.311 -26.8584 -122.311 -59.9941s54.7588 -59.9941 122.312 -59.9941s122.311 26.8584 122.311 59.9941
s-54.7588 59.9941 -122.312 59.9941zM409.99 109.629c97.2266 0 176.039 44.4834 176.039 99.3623s-78.8125 99.3623 -176.039 99.3623s-176.039 -44.4834 -176.039 -99.3623s78.8125 -99.3623 176.039 -99.3623z" />
    <glyph glyph-name="nine" unicode="9" horiz-adv-x="820" 
d="M409.987 725.389c198.823 0 359.987 -103.897 359.987 -232.068c0 -61.8018 -12.5527 -101.816 -47.2324 -154.285l-223.93 -338.737h-207.531l174.363 263.747c-18.1396 -1.81836 -36.7285 -2.77148 -55.6572 -2.77148c-198.812 0 -359.987 103.897 -359.987 232.058
s161.175 232.058 359.987 232.058zM233.948 487.515c0 -54.8789 78.8125 -99.3623 176.039 -99.3623s176.039 44.4834 176.039 99.3623s-78.8125 99.3623 -176.039 99.3623s-176.039 -44.4834 -176.039 -99.3623z" />
    <glyph glyph-name="colon" unicode=":" horiz-adv-x="243" 
d="M95.8398 217.59c-52.9297 0 -95.8398 36.8096 -95.8398 82.2197s42.9102 82.2197 95.8398 82.2197c52.9199 0 95.8301 -36.8096 95.8301 -82.2197s-42.9102 -82.2197 -95.8301 -82.2197zM95.8398 160.3c52.9199 0 95.8398 -36.8193 95.8301 -82.2197
c0 -45.4004 -42.9102 -82.2207 -95.8301 -82.2207c-52.9297 0 -95.8398 36.7998 -95.8398 82.2197c0 45.4004 42.9102 82.2207 95.8398 82.2207z" />
    <glyph glyph-name="semicolon" unicode=";" horiz-adv-x="242" 
d="M95.8398 209.42c-52.9297 0 -95.8398 36.8096 -95.8398 82.2197c0 45.4004 42.9102 82.21 95.8398 82.21c52.9199 0 95.8301 -36.8096 95.8301 -82.21c0 -45.4102 -42.9102 -82.2197 -95.8301 -82.2197zM8.85938 -69.7197v180.811h173.95l-49.5098 -157.74z" />
    <glyph glyph-name="less" unicode="&#x3c;" horiz-adv-x="421" 
d="M421.062 508.204v-134.679l-101.269 -25.2705l101.269 -25.2812v-134.678l-371.062 92.6152v134.678z" />
    <glyph glyph-name="equal" unicode="=" horiz-adv-x="471" 
d="M421.062 188.295h-371.062v134.678h371.062v-134.678zM421.062 373.524h-371.062v134.678h371.062v-134.678z" />
    <glyph glyph-name="greater" unicode="&#x3e;" horiz-adv-x="421" 
d="M0 508.2l371.05 -92.6094v-134.68l-371.05 -92.6104v134.67l101.26 25.29l-101.26 25.2695v134.67z" />
    <glyph glyph-name="question" unicode="?" horiz-adv-x="753" 
d="M698.39 494.248c11.9727 -66.249 -0.318359 -125.992 -35.5244 -172.732c-40.3428 -53.5537 -109.462 -86.7002 -199.875 -95.8467c-5.67383 -0.569336 -11.1504 -1.01855 -16.3975 -1.44531c-45.7217 -3.73535 -61.1338 7.97461 -57.9355 -54.5176l-171.757 0.230469
c-9.16797 140.056 15.6973 188.352 193.577 205.21c53.8164 5.09375 91.3555 20.4951 108.542 44.4951c13.3311 18.6436 12.1592 39.2148 8.8291 53.1924c-13.0791 54.8242 -85.6152 74.3545 -149.137 74.3545c-148.83 0 -202.592 -141.907 -202.592 -141.907
l-154.121 68.0342l5.06055 12.4219c73.4678 180.268 235.409 215.638 301.614 222.462c15.9492 1.74121 32.2158 2.61719 48.2744 2.61719c59.1729 0.0107422 115.738 -11.7539 163.574 -34.0117c100.633 -46.8057 147.932 -127.59 157.867 -182.557zM306.548 135.563
c60.7168 0 109.943 -36.8164 109.933 -82.2197c0 -45.4033 -49.2158 -82.2188 -109.933 -82.2188s-109.933 36.8047 -109.933 82.2197c0 45.4033 49.2158 82.2188 109.933 82.2188z" />
    <glyph glyph-name="at" unicode="@" horiz-adv-x="985" 
d="M492.56 725.39c272.04 0 492.561 -168.848 492.551 -377.147l-0.00976562 -2.23047c-0.860352 -114.68 -98.75 -200.55 -213.44 -200.55c-73.9502 0 -123.601 30.7305 -153.511 74.9004c-35.1104 -19.71 -78.4805 -31.5195 -125.601 -31.5195
c-116.46 0 -210.88 71.2695 -210.88 159.199s94.4102 159.199 210.88 159.199c37.8701 0 73.2998 -7.62012 104.02 -20.8105v10.6904h106.88v-139.95c0 -47.8799 24.9805 -70.1895 57.1006 -70.1895c46.4004 0 57.1006 47.5 57.1006 61.2695
c0 137.47 -145.54 248.899 -325.09 248.899c-179.54 0 -325.09 -111.43 -325.09 -248.899s145.55 -248.91 325.09 -248.91v-128.23c-272.03 0 -492.561 168.85 -492.561 377.14s220.53 377.14 492.561 377.14zM492.561 292.121c40.9297 0 74.0898 25.04 74.0898 55.9297
s-33.1797 55.9297 -74.0898 55.9297c-40.9199 0 -74.0898 -25.04 -74.0898 -55.9297s33.1797 -55.9297 74.0898 -55.9297z" />
    <glyph glyph-name="A" unicode="A" 
d="M601.79 696.09l407.431 -696.09h-194.33l-81.0801 138.51h-458.4l-81.0801 -138.51h-194.33l407.42 696.09h194.37zM358.57 280.58h292.08l-146.04 249.48z" />
    <glyph glyph-name="B" unicode="B" 
d="M874.22 362.43c52.46 -38.2998 85.1904 -92.29 85.1904 -152.15c0 -116.14 -122.95 -210.27 -274.62 -210.27h-634.79v696.09h601.93c151.66 0 274.62 -94.1396 274.62 -210.27c0 -46.1201 -19.4404 -88.7402 -52.3301 -123.4zM239.42 551.779v-131.229h423.17
c41.96 4.38965 74.3301 31.9092 74.3301 65.2793c0 36.4199 -38.5098 65.9502 -86.0098 65.9502h-411.49zM683.77 144.31c47.4902 0 86.0098 29.5293 86.0098 65.9697c0 36.4199 -38.5098 65.9502 -86.0098 65.9502h-444.35v-131.92h444.35z" />
    <glyph glyph-name="C" unicode="C" horiz-adv-x="1019" 
d="M799.798 232.65l168.832 -74.7109c-85.4805 -111.8 -243.881 -186.939 -425.291 -186.939c-272.03 0 -492.561 168.85 -492.561 377.14s220.53 377.14 492.561 377.14c181.41 0 339.8 -75.1396 425.27 -186.909l-168.82 -74.71
c-51.7305 67.2002 -147.181 112.32 -256.45 112.32c-164.33 0 -297.55 -102 -297.55 -227.83c0 -125.82 133.22 -227.83 297.55 -227.83c109.27 0 204.72 45.1201 256.46 112.33z" />
    <glyph glyph-name="D" unicode="D" 
d="M504.57 696.09c251.07 0 454.579 -155.819 454.579 -348.05c0 -192.21 -203.52 -348.04 -454.579 -348.04h-454.57v696.09h454.57zM504.569 145.161c146.36 0 265.001 90.8408 265.011 202.891c0 112.05 -118.64 202.89 -265 202.89h-264.99v-405.78h264.979z" />
    <glyph glyph-name="E" unicode="E" horiz-adv-x="915" 
d="M864.7 551.11h-625.28v-130.56h530.58v-145h-530.58v-130.56h625.28v-144.99h-814.7v696.09h814.7v-144.98z" />
    <glyph glyph-name="F" unicode="F" horiz-adv-x="915" 
d="M864.7 551.11h-625.28v-130.56h530.57v-145h-530.57v-275.55h-189.42v696.09h814.7v-144.98z" />
    <glyph glyph-name="G" unicode="G" horiz-adv-x="1086" 
d="M480.99 348.043l554.136 -0.000976562c-0.0214844 -77.4434 -30.6699 -149.355 -83.0078 -209.229l-2.39941 -2.72754c-9.44238 -10.5928 -19.4766 -20.8564 -30.2334 -30.6387l-0.186523 0.131836c-90.3252 -82.1973 -225.441 -134.578 -376.736 -134.578
c-272.028 0 -492.562 168.854 -492.562 377.141s220.534 377.141 492.562 377.141c181.407 0 339.8 -75.1436 425.272 -186.917l-168.82 -74.7051c-51.7354 67.2021 -147.188 112.321 -256.452 112.321c-164.33 0 -297.551 -102.002 -297.551 -227.829
s133.221 -227.829 297.551 -227.829c112.847 0 211.015 48.0986 261.457 118.981h-323.029v108.739z" />
    <glyph glyph-name="H" unicode="H" 
d="M769.72 696.09h189.42v-696.09h-189.42v275.55h-530.3v-275.55h-189.42v696.09h189.42v-275.54h530.3v275.54z" />
    <glyph glyph-name="I" unicode="I" horiz-adv-x="289" 
d="M239.42 0h-189.42v696.09h189.42v-696.09z" />
    <glyph glyph-name="J" unicode="J" horiz-adv-x="965" 
d="M195.09 696.19l719.991 -0.000976562v-348.05c0 -196.3 -207.85 -355.45 -464.25 -355.45c-170.97 0 -320.26 70.8203 -400.83 176.19l167.62 74.1699c47.0596 -61.0996 133.859 -102.119 233.209 -102.119c149.47 0 270.64 92.7695 270.64 207.21v203.05h-526.38v145z
" />
    <glyph glyph-name="K" unicode="K" horiz-adv-x="839" 
d="M456.4 382.13l382.54 -382.54h-236.78l-264.15 264.15l-98.5898 -98.5703v-165.58h-189.42v696.1h189.42v-293.74l293.74 293.74h236.79z" />
    <glyph glyph-name="L" unicode="L" horiz-adv-x="820" 
d="M239.42 144.59h530.58v-145h-720v696.1h189.42v-551.1z" />
    <glyph glyph-name="M" unicode="M" horiz-adv-x="1109" 
d="M864.88 695.69h194.329v-696.1h-189.41v372.45l-218.01 -372.45h-194.37l-218 372.45v-372.45h-189.42v696.1h194.33l310.28 -530.06z" />
    <glyph glyph-name="N" unicode="N" horiz-adv-x="907" 
d="M667.74 695.69h189.43v-696.1h-195.12l-422.63 452.8v-452.8h-189.42v696.1h199.13l418.61 -448.51v448.51z" />
    <glyph glyph-name="O" unicode="O" horiz-adv-x="1086" 
d="M542.562 725.282c272.039 0 492.562 -168.854 492.562 -377.141s-220.522 -377.141 -492.562 -377.141c-272.028 0 -492.562 168.854 -492.562 377.141s220.534 377.141 492.562 377.141zM542.562 120.323c164.341 0 297.562 102.002 297.551 227.829
c0 125.827 -133.221 227.829 -297.551 227.829s-297.551 -102.002 -297.551 -227.829s133.221 -227.829 297.551 -227.829z" />
    <glyph glyph-name="P" unicode="P" horiz-adv-x="915" 
d="M579.26 695.69c157.63 0 285.431 -94.1406 285.45 -210.271c0 -98.25 -91.4697 -180.73 -215.09 -203.82c-17.9502 -4.05957 -37.5898 -6.44922 -59.54 -6.44922h-350.66v-275.56h-189.42v696.1h529.26zM589.051 419.449c47.5098 0 86.0098 29.5293 86.0098 65.9795
c0 36.4199 -38.5 65.9502 -86.0098 65.9502l-349.64 -0.679688v-130.57z" />
    <glyph glyph-name="Q" unicode="Q" horiz-adv-x="1086" 
d="M1035.12 348.141c0 -96.4707 -47.374 -184.452 -125.201 -251.15l96.8975 -96.8975h-236.789l-9.73828 9.73828c-65.668 -24.8213 -139.541 -38.8311 -217.729 -38.8311c-272.028 0 -492.562 168.854 -492.562 377.141s220.522 377.141 492.562 377.141
s492.562 -168.854 492.562 -377.141zM542.563 120.322c33.333 0 65.3398 4.25 95.2549 11.9834l-215.835 215.835h236.789l129.004 -129.004c32.9824 36.6846 52.3379 81.1133 52.3379 129.015c0 125.827 -133.221 227.829 -297.551 227.829
s-297.551 -102.002 -297.551 -227.829s133.21 -227.829 297.551 -227.829z" />
    <glyph glyph-name="R" unicode="R" horiz-adv-x="915" 
d="M590.08 275.555l-0.930664 -0.000976562l275.555 -275.555h-214.871l-275.555 275.555h-134.853v-275.555h-189.425v696.096h529.257c157.647 0 285.446 -94.1377 285.457 -210.271c0 -98.2451 -91.4756 -180.728 -215.09 -203.818
c-17.9531 -4.05273 -37.5938 -6.45117 -59.5449 -6.45117zM239.426 551.098v-130.56l349.636 -0.678711c47.4961 0 86.0098 29.5312 86.0098 65.9639c0 36.4219 -38.5029 65.9531 -86.0098 65.9531z" />
    <glyph glyph-name="S" unicode="S" horiz-adv-x="1040" 
d="M496.062 279.669c-271.974 -2.91406 -413.498 102.91 -416.609 207.563c-1.27051 43.1367 17.8984 124.217 152.707 182.524c77.3232 33.4424 178.975 53.4004 286.005 55.0869c50.9355 0.99707 101.378 -2.55176 149.443 -10.2412
c108.465 -17.3291 210.982 -62.3271 297.66 -129.792c9.45312 -7.36133 17.9092 -14.5029 24.2734 -20.8779l-164.373 -77.9258c-9.69434 7.77734 -120.229 90.6211 -313.006 84.9033c-116.943 -3.47266 -235.092 -29.9375 -233.58 -80.709
c2.02637 -68.2969 219.712 -62.875 295.294 -66.6865c312.81 -15.7627 413.53 -109.473 416.642 -214.487c2.94629 -99.1982 -104.27 -227.687 -438.701 -237.61c-289.511 -8.58789 -464.521 118.006 -501.818 160.102l163.684 77.3018
c46.6523 -48.9531 190.258 -85.8242 344.061 -81.2568c146.42 4.33789 234.861 37.5283 233.646 78.4844c-1.15039 38.6455 -36.6514 76.4033 -295.326 73.6211z" />
    <glyph glyph-name="T" unicode="T" horiz-adv-x="947" 
d="M50 696.09h846.66v-144.98h-328.62v-551.11h-189.42v551.11h-328.62v144.98z" />
    <glyph glyph-name="U" unicode="U" horiz-adv-x="1028" 
d="M784.88 696.09h193.609v-369.4c0 -81.7598 -36.1299 -157.01 -96.7295 -217.06c-43.8701 -43.8701 -99.1904 -77.1006 -156.73 -99.6104c-132.99 -52.0195 -288.58 -52.0195 -421.57 0c-57.5898 22.5303 -112.81 55.7002 -156.729 99.6104
c-60.5898 60.0498 -96.7295 135.3 -96.7295 217.06v369.4h193.62v-359.84c3.51953 -51.3301 22.3896 -93.5898 56.6299 -126.77c109.7 -108.25 318.3 -108.24 428 0c34.2402 33.1699 53.1201 75.4297 56.6299 126.77v359.84z" />
    <glyph glyph-name="V" unicode="V" horiz-adv-x="1010" 
d="M802.314 696.096h206.907l-407.418 -696.096h-194.387l-407.418 696.096h206.896l297.715 -508.587z" />
    <glyph glyph-name="W" unicode="W" horiz-adv-x="1333" 
d="M1138.81 696.09h194.328l-284.67 -696.09h-194.39l-187.51 458.5l-187.51 -458.5h-194.38l-284.68 696.09h194.34l187.53 -458.48l187.53 458.48h194.34l187.54 -458.48z" />
    <glyph glyph-name="X" unicode="X" horiz-adv-x="947" 
d="M946.61 696.09l-351.63 -348.06l351.63 -348.03h-243.37l-229.94 227.61l-229.93 -227.61h-243.36l351.63 348.03l-351.63 348.06h243.32l229.97 -227.62l229.99 227.62h243.32z" />
    <glyph glyph-name="Y" unicode="Y" horiz-adv-x="951" 
d="M951.47 696.09l-381.03 -449.4v-246.69h-189.41v246.69l-381.03 449.4h224.41l251.33 -296.4l251.32 296.4h224.41z" />
    <glyph glyph-name="Z" unicode="Z" horiz-adv-x="873" 
d="M822.203 696.096v-61.5391l-468.496 -489.571h457.542v-144.985h-761.249v61.5391l468.496 489.561h-457.542v144.996h761.249z" />
    <glyph glyph-name="bracketleft" unicode="[" horiz-adv-x="332" 
d="M331.875 696.043h-126.101v-695.985h126.101v-116.725h-281.864v929.435h281.864v-116.725z" />
    <glyph glyph-name="backslash" unicode="\" horiz-adv-x="392" 
d="M252.152 0l-229.93 696.1h116.67l229.99 -696.1h-116.73z" />
    <glyph glyph-name="bracketright" unicode="]" horiz-adv-x="332" 
d="M0 812.77l281.86 -0.000976562v-929.44h-281.86v116.73h126.09v695.98h-126.09v116.73z" />
    <glyph glyph-name="underscore" unicode="_" horiz-adv-x="481" 
d="M480.6 -134.78h-480.6v134.67h480.6v-134.67z" />
    <glyph glyph-name="grave" unicode="`" horiz-adv-x="219" 
d="M146.821 776.689l21.9072 -52.6445l-96.8213 10.9541l-21.9072 52.6445z" />
    <glyph glyph-name="a" unicode="a" 
d="M601.79 696.09l407.431 -696.09h-194.33l-81.0801 138.51h-458.4l-81.0801 -138.51h-194.33l407.42 696.09h194.37zM358.57 280.58h292.08l-146.04 249.48z" />
    <glyph glyph-name="b" unicode="b" 
d="M874.223 362.426c52.458 -38.2949 85.1895 -92.2852 85.1895 -152.148c0 -116.133 -122.946 -210.271 -274.624 -210.271h-634.787v696.096h601.925c151.667 0 274.624 -94.1377 274.624 -210.271c0 -46.127 -19.4434 -88.7373 -52.3271 -123.406zM239.426 551.786
l0.000976562 -131.237h423.169c41.9531 4.39258 74.3213 31.9082 74.3213 65.2842c0 36.4219 -38.5029 65.9531 -86.0098 65.9531h-411.481zM683.77 144.314c47.4961 0 86.0098 29.5312 86.0098 65.9639c0 36.4219 -38.5029 65.9531 -86.0098 65.9531h-444.343v-131.917
h444.343z" />
    <glyph glyph-name="c" unicode="c" horiz-adv-x="1019" 
d="M799.024 232.655l168.82 -74.7158c-85.4727 -111.795 -243.876 -186.938 -425.282 -186.938c-272.028 0 -492.562 168.854 -492.562 377.141s220.534 377.141 492.562 377.141c181.406 0 339.799 -75.1436 425.271 -186.917l-168.82 -74.7051
c-51.7354 67.2021 -147.188 112.321 -256.452 112.321c-164.33 0 -297.551 -102.002 -297.551 -227.829s133.221 -227.829 297.551 -227.829c109.265 0 204.717 45.1191 256.463 112.332z" />
    <glyph glyph-name="d" unicode="d" 
d="M504.574 696.091c251.062 0 454.574 -155.819 454.574 -348.049c0 -192.218 -203.522 -348.047 -454.574 -348.047h-454.574v696.096h454.574zM504.574 145.155c146.354 0 264.996 90.8408 265.007 202.898c0 112.047 -118.642 202.887 -264.996 202.887h-264.995
v-405.785h264.984z" />
    <glyph glyph-name="e" unicode="e" horiz-adv-x="916" 
d="M864.704 551.105l-625.278 -0.000976562v-130.559h530.571v-144.996h-530.571v-130.559h625.278v-144.996h-814.704v696.096h814.704v-144.985z" />
    <glyph glyph-name="f" unicode="f" horiz-adv-x="916" 
d="M864.704 551.105l-625.279 -0.000976562v-130.559h530.561v-144.996h-530.561v-275.555h-189.425v696.096h814.704v-144.985z" />
    <glyph glyph-name="g" unicode="g" horiz-adv-x="1086" 
d="M480.99 348.043l554.136 -0.000976562c-0.0214844 -77.4434 -30.6699 -149.355 -83.0078 -209.229l-2.39941 -2.72754c-9.44238 -10.5928 -19.4766 -20.8564 -30.2334 -30.6387l-0.186523 0.131836c-90.3252 -82.1973 -225.441 -134.578 -376.736 -134.578
c-272.028 0 -492.562 168.854 -492.562 377.141s220.534 377.141 492.562 377.141c181.407 0 339.8 -75.1436 425.272 -186.917l-168.82 -74.7051c-51.7354 67.2021 -147.188 112.321 -256.452 112.321c-164.33 0 -297.551 -102.002 -297.551 -227.829
s133.221 -227.829 297.551 -227.829c112.847 0 211.015 48.0986 261.457 118.981h-323.029v108.739z" />
    <glyph glyph-name="h" unicode="h" 
d="M769.723 696.091h189.414v-696.096h-189.414v275.555h-530.298v-275.555h-189.425v696.096h189.425v-275.544h530.298v275.544z" />
    <glyph glyph-name="i" unicode="i" horiz-adv-x="290" 
d="M239.425 -0.00390625h-189.425v696.096h189.425v-696.096z" />
    <glyph glyph-name="j" unicode="j" horiz-adv-x="966" 
d="M195.095 696.189l719.985 -0.000976562v-348.048c0 -196.304 -207.85 -355.452 -464.246 -355.452c-170.979 0 -320.269 70.8164 -400.834 176.192l167.616 74.1689c47.0684 -61.1006 133.866 -102.123 233.218 -102.123c149.465 0 270.637 92.7686 270.637 207.215
v203.052h-526.376v144.996z" />
    <glyph glyph-name="k" unicode="k" horiz-adv-x="839" 
d="M456.398 382.646l382.542 -382.553h-236.778l-264.152 264.163l-98.585 -98.585v-165.578h-189.425v696.096h189.425v-293.738l293.738 293.738h236.789z" />
    <glyph glyph-name="l" unicode="l" horiz-adv-x="820" 
d="M239.425 145.091h530.572v-144.996h-719.997v696.096h189.425v-551.1z" />
    <glyph glyph-name="m" unicode="m" horiz-adv-x="1109" 
d="M864.879 696.189h194.332v-696.096h-189.414v372.453l-218.004 -372.453h-194.376l-217.992 372.464v-372.464h-189.425v696.096h194.332l310.279 -530.057z" />
    <glyph glyph-name="n" unicode="n" horiz-adv-x="908" 
d="M667.742 696.189h189.425v-696.096h-195.121l-422.621 452.8v-452.8h-189.425v696.096h199.13l418.612 -448.506v448.506z" />
    <glyph glyph-name="o" unicode="o" horiz-adv-x="1085" 
d="M542.562 725.283c272.039 0 492.562 -168.854 492.562 -377.141s-220.522 -377.141 -492.562 -377.141c-272.028 0 -492.562 168.854 -492.562 377.141s220.534 377.141 492.562 377.141zM542.562 120.324c164.341 0 297.562 102.002 297.551 227.829
c0 125.827 -133.221 227.829 -297.551 227.829s-297.551 -102.002 -297.551 -227.829s133.221 -227.829 297.551 -227.829z" />
    <glyph glyph-name="p" unicode="p" horiz-adv-x="916" 
d="M579.257 696.091c157.637 0 285.437 -94.1387 285.458 -210.271c0 -98.2451 -91.4756 -180.728 -215.09 -203.818c-17.9531 -4.05273 -37.5938 -6.45117 -59.5449 -6.45117h-350.655v-275.555h-189.425v696.096h529.257zM589.051 419.866
c47.5068 0 86.0098 29.5303 86.0098 65.9629c0 36.4219 -38.5029 65.9531 -86.0098 65.9531l-349.636 -0.678711v-130.559z" />
    <glyph glyph-name="q" unicode="q" horiz-adv-x="1085" 
d="M1035.12 348.142c0 -96.4707 -47.374 -184.452 -125.201 -251.15l96.8975 -96.8975h-236.789l-9.73828 9.73828c-65.668 -24.8213 -139.541 -38.8311 -217.729 -38.8311c-272.028 0 -492.562 168.854 -492.562 377.141s220.522 377.141 492.562 377.141
s492.562 -168.854 492.562 -377.141zM542.563 120.323c33.333 0 65.3398 4.25 95.2549 11.9834l-215.835 215.835h236.789l129.004 -129.004c32.9824 36.6846 52.3379 81.1133 52.3379 129.015c0 125.827 -133.221 227.829 -297.551 227.829
s-297.551 -102.002 -297.551 -227.829s133.21 -227.829 297.551 -227.829z" />
    <glyph glyph-name="r" unicode="r" horiz-adv-x="916" 
d="M590.08 275.555l-0.930664 -0.000976562l275.555 -275.555h-214.871l-275.555 275.555h-134.853v-275.555h-189.425v696.096h529.257c157.647 0 285.446 -94.1377 285.457 -210.271c0 -98.2451 -91.4756 -180.728 -215.09 -203.818
c-17.9531 -4.05273 -37.5938 -6.45117 -59.5449 -6.45117zM239.426 551.098v-130.56l349.636 -0.678711c47.4961 0 86.0098 29.5312 86.0098 65.9639c0 36.4219 -38.5029 65.9531 -86.0098 65.9531z" />
    <glyph glyph-name="s" unicode="s" horiz-adv-x="1040" 
d="M496.062 279.769c-271.974 -2.91406 -413.498 102.91 -416.609 207.563c-1.27051 43.1367 17.8984 124.217 152.707 182.524c77.3232 33.4424 178.975 53.4004 286.005 55.0869c50.9355 0.99707 101.378 -2.55176 149.443 -10.2412
c108.465 -17.3291 210.982 -62.3271 297.66 -129.792c9.45312 -7.36133 17.9092 -14.5029 24.2734 -20.8779l-164.373 -77.9258c-9.69434 7.77734 -120.229 90.6211 -313.006 84.9033c-116.943 -3.47266 -235.092 -29.9375 -233.58 -80.709
c2.02637 -68.2969 219.712 -62.875 295.294 -66.6865c312.81 -15.7627 413.53 -109.473 416.642 -214.487c2.94629 -99.1982 -104.27 -227.687 -438.701 -237.61c-289.511 -8.58789 -464.521 118.006 -501.818 160.102l163.684 77.3018
c46.6523 -48.9531 190.258 -85.8242 344.061 -81.2568c146.42 4.33789 234.861 37.5283 233.646 78.4844c-1.15039 38.6455 -36.6514 76.4033 -295.326 73.6211z" />
    <glyph glyph-name="t" unicode="t" horiz-adv-x="947" 
d="M50 696.091h846.655v-144.985h-328.615v-551.11h-189.425v551.11h-328.615v144.985z" />
    <glyph glyph-name="u" unicode="u" horiz-adv-x="1028" 
d="M784.883 696.091l193.609 0.000976562v-369.396c0 -81.7598 -36.1367 -157.013 -96.7334 -217.062c-43.8701 -43.8701 -99.1875 -77.1045 -156.729 -99.6143c-132.99 -52.0195 -288.579 -52.0195 -421.569 0c-57.5957 22.5322 -112.814 55.7002 -156.729 99.6143
c-60.5967 60.0488 -96.7334 135.302 -96.7334 217.062v369.396h193.62v-359.845c3.5166 -51.3301 22.3896 -93.5898 56.6318 -126.77c109.703 -108.246 318.297 -108.235 428 0c34.2422 33.168 53.1152 75.4277 56.6318 126.769v359.845z" />
    <glyph glyph-name="v" unicode="v" horiz-adv-x="1010" 
d="M802.314 696.096h206.907l-407.418 -696.096h-194.387l-407.418 696.096h206.896l297.715 -508.587z" />
    <glyph glyph-name="w" unicode="w" horiz-adv-x="1333" 
d="M1138.81 696.09h194.328l-284.67 -696.09h-194.39l-187.51 458.5l-187.51 -458.5h-194.38l-284.68 696.09h194.34l187.53 -458.48l187.53 458.48h194.34l187.54 -458.48z" />
    <glyph glyph-name="x" unicode="x" horiz-adv-x="947" 
d="M946.62 696.09l-351.63 -348.06l351.63 -348.03h-243.37l-229.94 227.61l-229.93 -227.61h-243.36l351.63 348.03l-351.63 348.06h243.32l229.97 -227.62l229.99 227.62h243.32z" />
    <glyph glyph-name="y" unicode="y" horiz-adv-x="951" 
d="M951.47 696.09l-381.03 -449.4v-246.69h-189.41v246.69l-381.03 449.4h224.41l251.33 -296.4l251.32 296.4h224.41z" />
    <glyph glyph-name="z" unicode="z" horiz-adv-x="872" 
d="M822.203 696.091v-61.5391l-468.496 -489.571h457.542v-144.985h-761.249v61.5391l468.496 489.561h-457.542v144.996h761.249z" />
    <glyph glyph-name="braceleft" unicode="{" horiz-adv-x="390" 
d="M256.271 211.04l-0.000976562 -211.039h133.309l-1.05176 -115.684l-141.809 1.05176c-73.0625 0.537109 -132.849 60.7617 -132.849 133.835v222.145c0 19.5635 -15.8613 35.4248 -35.4248 35.4248h-28.4473v142.564h28.4473c19.5635 0 35.4248 15.8613 35.4248 35.4248
v222.145c0 73.0625 59.7861 133.287 132.849 133.824l141.809 1.05176l1.05176 -115.684h-133.309v-211.037c0.942383 -19.1475 1.3916 -84.1699 -28.8193 -137.012c30.2002 -52.8525 29.751 -117.863 28.8203 -137.011z" />
    <glyph glyph-name="verticalbar" unicode="|" horiz-adv-x="217" 
d="M166.725 0.000976562h-116.725v696.096h116.725v-696.096z" />
    <glyph glyph-name="braceright" unicode="}" horiz-adv-x="390" 
d="M311.14 419.33l28.4414 0.000976562v-142.55h-28.4404c-19.5703 0 -35.4307 -15.8701 -35.4307 -35.4297v-222.15c0 -73.0703 -59.79 -133.29 -132.85 -133.83l-141.81 -1.0498l-1.0498 115.68h133.31v211.05c-0.94043 19.1504 -1.39062 84.1699 28.8193 137.01
c-30.2002 52.8398 -29.75 117.85 -28.8203 137v211.04h-133.31l1.0498 115.68l141.81 -1.0498c73.0596 -0.540039 132.85 -60.7705 132.85 -133.83v-222.15c0 -19.5596 15.8604 -35.4199 35.4307 -35.4199z" />
    <glyph glyph-name="asciitilde" unicode="~" horiz-adv-x="481" 
d="M389.372 431.767l41.9971 -136.726c-13.6152 -7.25098 -104.324 -55.8418 -214.355 -12.5635c-77.9365 30.6602 -167.014 -14.6562 -167.014 -14.6562l41.7998 136.068s70.8496 47.1562 149.355 14.207c78.375 -32.8838 140.45 9.38672 148.217 13.6699z" />
    <glyph glyph-name="nonbreakingspace" unicode="&#xa0;" horiz-adv-x="488" 
 />
    <glyph glyph-name="exclamdown" unicode="&#xa1;" horiz-adv-x="321" 
d="M254.65 -12.3242h-189.425v524.416h189.425v-524.416zM159.933 546.377c-60.7139 0 -109.933 36.8105 -109.933 82.2188s49.2188 82.2188 109.933 82.2188s109.933 -36.8105 109.933 -82.2188s-49.2188 -82.2188 -109.933 -82.2188z" />
    <glyph glyph-name="cent" unicode="&#xa2;" horiz-adv-x="510" 
d="M459.79 252.93c-38.6504 -50.5498 -107.091 -86.0303 -186.891 -92.5107v-68.9102h-86.0303v73.3896c-107.33 20.5 -186.87 94.7598 -186.87 183.29s79.54 162.811 186.87 183.291v73.0898h86.0303v-68.6201c79.79 -6.4502 148.23 -41.9307 186.881 -92.4805
l-84.5703 -37.4199c-21.6699 28.1602 -58.75 48.3604 -102.29 54.3008v-224.3c43.54 5.91992 80.6299 26.1396 102.3 54.2998zM97.71 348.189c0 -46.7002 36.6904 -86.8105 89.1807 -104.461v208.94c-52.4902 -17.6699 -89.1807 -57.7695 -89.1807 -104.479z" />
    <glyph glyph-name="currency" unicode="&#xa4;" horiz-adv-x="665" 
d="M567.504 207.772c0 -43.7383 -16.4082 -84.1035 -43.9902 -117.141l91.5742 -90.6318h-145.281l-29.1924 28.8965c-32.3799 -14.4258 -69.0645 -22.707 -108.071 -22.707s-75.7021 8.28125 -108.07 22.707l-29.1924 -28.8965h-145.281l91.5742 90.6318
c-27.582 33.0371 -43.9912 73.4023 -43.9912 117.141c0 43.7275 16.4092 84.0928 43.9912 117.13l-91.5742 90.6436h145.248l29.2246 -28.9072c32.3799 14.4258 69.0752 22.707 108.082 22.707s75.7021 -8.27051 108.082 -22.708l29.2031 28.9072h145.248l-91.5742 -90.6436
c27.582 -33.0371 43.9912 -73.3906 43.9912 -117.129zM183.616 207.772c0 -70.5645 66.6758 -127.776 148.929 -127.776s148.929 57.2119 148.929 127.776c0 70.5752 -66.6758 127.776 -148.929 127.776s-148.929 -57.2119 -148.929 -127.776z" />
    <glyph glyph-name="yen" unicode="&#xa5;" horiz-adv-x="697" 
d="M646.66 584.8l-209.829 -247.51h119.93v-58.3604h-169.06v-21.7002h169.06v-58.3604h-169.06v-87.1699h-128.74v87.1699h-169.05v58.3604h169.05v21.7002h-169.05v58.3604h119.93l-209.84 247.51h152.52l170.82 -201.46l170.8 201.46h152.52z" />
    <glyph glyph-name="dieresis" unicode="&#xa8;" horiz-adv-x="307" 
d="M215.743 791.39c22.8828 0 41.4385 -15.916 41.4385 -35.5449s-18.5557 -35.5449 -41.4385 -35.5449s-41.4385 15.916 -41.4385 35.5449s18.5557 35.5449 41.4385 35.5449zM91.4385 791.39c22.8828 0 41.4385 -15.916 41.4385 -35.5449
s-18.5557 -35.5449 -41.4385 -35.5449s-41.4385 15.916 -41.4385 35.5449s18.5557 35.5449 41.4385 35.5449z" />
    <glyph glyph-name="copyright" unicode="&#xa9;" horiz-adv-x="985" 
d="M492.56 725.39c272.04 0 492.562 -168.85 492.562 -377.14s-220.53 -377.14 -492.561 -377.14s-492.561 168.85 -492.561 377.14s220.52 377.14 492.56 377.14zM492.562 66.9297c190.28 0 344.53 125.96 344.53 281.33s-154.25 281.33 -344.53 281.33
s-344.53 -125.96 -344.53 -281.33s154.25 -281.33 344.53 -281.33zM508.581 239.67c52.0098 0 97.4395 21.4766 122.069 53.4766l80.3496 -35.5596c-40.6797 -53.21 -116.06 -88.9697 -202.409 -88.9697c-129.48 0 -234.45 80.3604 -234.45 179.511
c0 99.1299 104.96 179.5 234.45 179.5c86.3398 0 161.729 -35.7695 202.409 -88.9795l-80.3496 -35.5596c-24.6396 31.9902 -70.0596 53.4707 -122.069 53.4707c-78.2305 0 -141.641 -48.5596 -141.641 -108.439c0 -59.9004 63.4102 -108.45 141.641 -108.45z" />
    <glyph glyph-name="guillemotleft" unicode="&#xab;" horiz-adv-x="420" 
d="M419.692 508.204v-134.689l-50.4424 -25.2705l50.4424 -25.2705v-134.678l-184.847 92.6152v-92.6152l-184.847 92.6152v134.678l184.847 92.6152v-92.6152zM184.403 348.255l50.4424 -25.2812v50.5518z" />
    <glyph glyph-name="softhyphen" unicode="&#xad;" horiz-adv-x="0" 
 />
    <glyph glyph-name="registered" unicode="&#xae;" horiz-adv-x="543" 
d="M246.37 725.39c136.06 0 246.37 -84.4502 246.37 -188.641c0 -104.18 -110.3 -188.63 -246.37 -188.63c-136.06 0 -246.369 84.4502 -246.369 188.63c0 104.19 110.31 188.641 246.369 188.641zM246.371 411.81c82.2002 0 148.83 55.9404 148.83 124.94
s-66.6299 124.94 -148.83 124.94c-82.1904 0 -148.83 -55.9404 -148.83 -124.94s66.6396 -124.94 148.83 -124.94zM296.401 522.329c-3.91016 -0.889648 -8.20117 -1.41992 -12.9912 -1.41016h-0.209961l60.2002 -60.2002h-51.7197l-60.2002 60.2002h-24.6797v-60.2002
h-41.3896v152.07h115.62c34.4404 0 62.3604 -20.5703 62.3604 -45.9404c0 -21.4502 -19.9902 -39.4697 -46.9902 -44.5195zM283.17 552.439c10.3799 0 18.79 6.44922 18.79 14.3994c0 7.95996 -8.41016 14.4102 -18.79 14.4102l-76.3799 -0.139648v-28.5303z" />
    <glyph glyph-name="degree" unicode="&#xb0;" horiz-adv-x="220" 
d="M84.8398 838.38c46.8496 0 84.8389 -26.4297 84.8389 -59.04s-37.9902 -59.04 -84.8398 -59.04s-84.8398 26.4297 -84.8398 59.04s37.9805 59.04 84.8408 59.04zM84.8389 756.439c22.3799 0 40.5293 10.25 40.5293 22.9004s-18.1396 22.9102 -40.5293 22.9102
c-22.3799 0 -40.5303 -10.2598 -40.5303 -22.9102s18.1504 -22.9004 40.5303 -22.9004z" />
    <glyph glyph-name="plusminus" unicode="&#xb1;" horiz-adv-x="371" 
d="M371.06 332.9h-118.191v-87.4902h118.19v-134.67h-371.06v134.67h118.19v87.4902h-118.19v134.68h118.19v118.19h134.68v-118.19h118.19v-134.68z" />
    <glyph glyph-name="acute" unicode="&#xb4;" horiz-adv-x="219" 
d="M71.9072 776.689l96.8213 10.9541l-21.9072 -52.6445l-96.8213 -10.9541z" />
    <glyph glyph-name="periodcentered" unicode="&#xb7;" horiz-adv-x="398" 
d="M198.929 475.919c82.2637 0 148.939 -57.2012 148.929 -127.776c0 -70.5752 -66.6758 -127.776 -148.929 -127.776s-148.929 57.2119 -148.929 127.776c0 70.5752 66.6758 127.776 148.929 127.776z" />
    <glyph glyph-name="cedilla" unicode="&#xb8;" horiz-adv-x="295" 
d="M146.646 -47.0615c54.3203 0 98.3564 -28.3682 98.3564 -63.3877s-44.0234 -63.4014 -98.3438 -63.4014c-48.0986 0 -88.1133 22.2578 -96.6465 51.6689l41.5918 17.252c9.92383 -15.6309 28.4688 -23.8467 55.0537 -23.8467s48.1309 8.90527 48.1309 19.9033
c0 10.9863 -17.6689 19.9023 -48.1318 19.9023h-86.3818l34.2197 88.9668h49.3906l-18.7637 -48.7773c6.95605 1.00781 14.0869 1.71973 21.5244 1.71973z" />
    <glyph glyph-name="guillemotright" unicode="&#xbb;" horiz-adv-x="420" 
d="M184.85 508.2l184.84 -92.6084v-134.67l-184.84 -92.6104v92.6104l-184.85 -92.6104v134.68l50.4404 25.2695l-50.4404 25.2695v134.67l184.85 -92.6104v92.6104zM184.85 322.972l50.4404 25.29l-50.4404 25.2695v-50.5596z" />
    <glyph glyph-name="questiondown" unicode="&#xbf;" horiz-adv-x="754" 
d="M576.722 276.649l154.132 -68.0332l-5.06055 -12.4219c-73.4678 -180.268 -235.409 -215.638 -301.614 -222.462c-15.9492 -1.74121 -32.2158 -2.61719 -48.2744 -2.61719c-59.1836 -0.0107422 -115.749 11.7539 -163.573 34.001
c-100.633 46.8057 -147.932 127.59 -157.867 182.557c-11.9727 66.2598 0.306641 126.002 35.5234 172.753c40.3428 53.5537 109.462 86.7002 199.875 95.8467c5.67383 0.569336 11.1504 1.01855 16.3975 1.44531c45.7217 3.73535 61.1338 -7.97461 57.9355 54.5176
l171.757 -0.230469c9.16797 -140.056 -15.6973 -188.352 -193.588 -205.221c-53.8164 -5.09375 -91.3555 -20.4951 -108.542 -44.4951c-13.3311 -18.6436 -12.1592 -39.2148 -8.8291 -53.1924c13.0791 -54.8242 85.6152 -74.3545 149.137 -74.3545
c148.83 0 202.592 141.907 202.592 141.907zM446.294 546.378c-60.7139 0 -109.933 36.8105 -109.933 82.2188s49.2188 82.2188 109.933 82.2188s109.933 -36.8105 109.933 -82.2188s-49.2188 -82.2188 -109.933 -82.2188z" />
    <glyph glyph-name="Agrave" unicode="&#xc0;" 
d="M554.44 724.01l-96.8301 10.9502l-21.9102 52.6396l96.8301 -10.9502zM601.79 696.1l407.431 -696.1h-194.33l-81.0801 138.51h-458.4l-81.0801 -138.51h-194.33l407.42 696.1h194.37zM358.57 280.57h292.08l-146.04 249.49z" />
    <glyph glyph-name="Aacute" unicode="&#xc1;" 
d="M574.03 787.6l-21.9102 -52.6396l-96.8203 -10.9502l21.9004 52.6396zM601.8 696.1l407.421 -696.1h-194.33l-81.0801 138.51h-458.4l-81.0801 -138.51h-194.33l407.43 696.1h194.37zM358.57 280.57h292.08l-146.04 249.49z" />
    <glyph glyph-name="Acircumflex" unicode="&#xc2;" 
d="M578.77 724.01l-74.1699 8.38965l-74.1602 -8.38965l21.9102 52.6396l52.25 10.9502l52.2598 -10.9502zM601.79 696.1l407.431 -696.1h-194.33l-81.0801 138.51h-458.4l-81.0801 -138.51h-194.33l407.42 696.1h194.37zM358.561 280.57h292.08l-146.04 249.49z" />
    <glyph glyph-name="Atilde" unicode="&#xc3;" 
d="M601.79 696.1l407.431 -696.1h-194.33l-81.0801 138.51h-458.4l-81.0801 -138.51h-194.33l407.42 696.1h194.37zM358.561 280.57h292.08l-146.04 249.49zM492.051 729.681c-30.1602 11.8604 -64.6104 -5.66113 -64.6104 -5.66113l16.1699 52.6299
s27.4102 18.2402 57.7803 5.5c30.3203 -12.7197 54.3398 3.64062 57.3398 5.29102l16.25 -52.9004c-5.28027 -2.7998 -40.3701 -21.6094 -82.9297 -4.85938z" />
    <glyph glyph-name="Adieresis" unicode="&#xc4;" 
d="M601.79 696.1l407.431 -696.109h-194.33l-81.0801 138.51h-458.4l-81.0801 -138.5h-194.33l407.42 696.1h194.37zM358.57 280.57h292.08l-146.04 249.49zM566.761 720.261c-22.8799 0 -41.4395 15.9199 -41.4395 35.54c0 19.6299 18.5596 35.5498 41.4395 35.5498
c22.8896 0 41.4395 -15.9199 41.4395 -35.5498c0 -19.6201 -18.5498 -35.54 -41.4395 -35.54zM442.461 720.261c-22.8799 0 -41.4395 15.9199 -41.4395 35.54c0 19.6299 18.5596 35.5498 41.4395 35.5498s41.4395 -15.9199 41.4395 -35.5498
c0 -19.6201 -18.5596 -35.54 -41.4395 -35.54z" />
    <glyph glyph-name="Aring" unicode="&#xc5;" 
d="M601.79 696.1l407.431 -696.1h-194.33l-81.0801 138.51h-458.4l-81.0801 -138.51h-194.33l407.42 696.1h194.37zM358.57 280.57h292.08l-146.04 249.49zM504.61 720.261c-46.8604 0 -84.8486 26.4297 -84.8389 59.04c0 32.6104 37.9902 59.04 84.8398 59.04
s84.8398 -26.4297 84.8398 -59.04s-37.9805 -59.04 -84.8408 -59.04zM504.612 802.211c-22.3896 0 -40.5312 -10.2598 -40.5312 -22.9102s18.1504 -22.9004 40.5303 -22.9004s40.5303 10.25 40.5303 22.9004s-18.1396 22.9102 -40.5293 22.9102z" />
    <glyph glyph-name="AE" unicode="&#xc6;" horiz-adv-x="1369" 
d="M1319.31 551.1l-625.27 0.000976562v-130.56h530.56v-144.98h-530.56v-130.57h625.27v-144.99h-814.7v138.51h-229.2l-81.0801 -138.51h-194.33l407.41 696.1h911.9v-145zM358.571 280.57h146.04v249.49z" />
    <glyph glyph-name="Ccedilla" unicode="&#xc7;" horiz-adv-x="1018" 
d="M542.573 -28.957c-4.90723 0 -9.76953 0.177734 -14.6436 0.320312l-7.7334 -20.1113c6.95605 1.00781 14.0869 1.71973 21.5244 1.71973c54.3096 0 98.3438 -28.3818 98.3438 -63.4014s-44.0234 -63.4014 -98.3438 -63.4014
c-48.0986 0 -88.1133 22.2578 -96.6465 51.6689l41.5918 17.252c9.92383 -15.6309 28.4688 -23.8467 55.0537 -23.8467s48.1309 8.90527 48.1309 19.9033c0 10.9863 -17.6689 19.9023 -48.1318 19.9023h-86.3818l24.3066 63.1816
c-242.299 23.6709 -429.643 182.009 -429.643 373.964c0 208.287 220.522 377.141 492.562 377.141c181.418 0 339.811 -75.1436 425.283 -186.938l-168.82 -74.7051c-51.7354 67.2021 -147.188 112.321 -256.452 112.321c-164.33 0 -297.551 -102.002 -297.551 -227.829
s133.221 -227.829 297.551 -227.829c109.265 0 204.717 45.1191 256.463 112.332l168.82 -74.7051c-85.4727 -111.795 -243.876 -186.938 -425.283 -186.938z" />
    <glyph glyph-name="Egrave" unicode="&#xc8;" horiz-adv-x="915" 
d="M864.704 551.144l-625.278 -0.000976562v-130.559h530.561v-144.996h-530.561v-130.559h625.278v-144.996h-814.704v696.096h814.704v-144.985zM506.667 724.049l-96.8213 10.9541l-21.9072 52.6328l96.8213 -10.9541z" />
    <glyph glyph-name="Eacute" unicode="&#xc9;" horiz-adv-x="915" 
d="M864.704 551.144l-625.278 -0.000976562v-130.559h530.561v-144.996h-530.561v-130.559h625.278v-144.996h-814.704v696.096h814.704v-144.985zM526.768 787.637l-21.9072 -52.6328l-96.832 -10.9541l21.9072 52.6328z" />
    <glyph glyph-name="Ecircumflex" unicode="&#xca;" horiz-adv-x="915" 
d="M864.704 551.144l-625.278 -0.000976562v-130.559h530.571v-144.996h-530.571v-130.559h625.278v-144.996h-814.704v696.096h814.704v-144.985zM531.521 724.049l-74.168 8.39062l-74.1572 -8.39062l21.9072 52.6328l52.25 10.9541l52.2607 -10.9541z" />
    <glyph glyph-name="Edieresis" unicode="&#xcb;" horiz-adv-x="915" 
d="M864.704 551.144l-625.278 -0.000976562v-130.559h530.561v-144.996h-530.561v-130.559h625.278v-144.996h-814.704v696.096h814.704v-144.985zM519.505 720.292c-22.8828 0 -41.4385 15.9268 -41.4385 35.5557s18.5557 35.5449 41.4385 35.5449
s41.4385 -15.9268 41.4385 -35.5557s-18.5557 -35.5449 -41.4385 -35.5449zM395.2 720.292c-22.8936 0 -41.4385 15.9268 -41.4385 35.5557s18.5557 35.5449 41.4385 35.5449s41.4385 -15.9268 41.4385 -35.5557s-18.5557 -35.5449 -41.4385 -35.5449z" />
    <glyph glyph-name="Igrave" unicode="&#xcc;" horiz-adv-x="289" 
d="M239.425 0.0332031h-189.425v696.096h189.425v-696.096zM194.032 724.05l-96.832 10.9541l-21.9072 52.6328l96.832 -10.9541z" />
    <glyph glyph-name="Iacute" unicode="&#xcd;" horiz-adv-x="289" 
d="M239.425 0.0332031h-189.425v696.096h189.425v-696.096zM214.121 787.637l-21.9072 -52.6328l-96.8213 -10.9541l21.9072 52.6328z" />
    <glyph glyph-name="Icircumflex" unicode="&#xce;" horiz-adv-x="289" 
d="M239.425 0.0332031h-189.425v696.096h189.425v-696.096zM218.876 724.05l-74.1562 8.39062l-74.1689 -8.39062l21.9072 52.6328l52.2607 10.9541l52.25 -10.9541z" />
    <glyph glyph-name="Idieresis" unicode="&#xcf;" horiz-adv-x="307" 
d="M248.309 0.0332031h-189.425v696.096h189.425v-696.096zM215.743 720.304c-22.8857 0 -41.4385 15.9141 -41.4385 35.5449s18.5527 35.5449 41.4385 35.5449s41.4385 -15.9141 41.4385 -35.5449s-18.5527 -35.5449 -41.4385 -35.5449zM91.4385 720.304
c-22.8857 0 -41.4385 15.9141 -41.4385 35.5449s18.5527 35.5449 41.4385 35.5449s41.4385 -15.9141 41.4385 -35.5449s-18.5527 -35.5449 -41.4385 -35.5449z" />
    <glyph glyph-name="Eth" unicode="&#xd0;" horiz-adv-x="1017" 
d="M511.512 696.106c251.052 0 454.575 -155.829 454.586 -348.059c0 -192.218 -203.522 -348.047 -454.574 -348.047h-454.574v275.456h-56.9492v144.996h56.9492v275.653h454.562zM511.513 145.16c146.354 0 264.997 90.8398 265.008 202.909
c0 112.047 -118.642 202.887 -264.996 202.887h-264.995v-130.504h113.887v-144.985h-113.888v-130.307h264.984z" />
    <glyph glyph-name="Ntilde" unicode="&#xd1;" horiz-adv-x="907" 
d="M667.742 696.096h189.425v-696.096h-195.121l-422.621 452.8v-452.8h-189.425v696.096h199.13l418.612 -448.506v448.506zM444.426 729.582c-30.1562 11.8633 -64.6064 -5.66309 -64.6064 -5.66309l16.168 52.6328s27.4062 18.2383 57.7812 5.49902
c30.3203 -12.7178 54.3311 3.63672 57.3438 5.29102l16.2441 -52.8965c-5.2793 -2.80371 -40.3643 -21.6113 -82.9307 -4.86328z" />
    <glyph glyph-name="Ograve" unicode="&#xd2;" horiz-adv-x="1085" 
d="M542.562 725.32c272.028 0 492.562 -168.854 492.562 -377.141s-220.522 -377.141 -492.562 -377.141c-272.028 0 -492.562 168.854 -492.562 377.141s220.522 377.141 492.562 377.141zM542.562 120.361c164.33 0 297.551 101.991 297.551 227.829
c0 125.827 -133.21 227.829 -297.551 227.829c-164.33 0 -297.551 -102.002 -297.551 -227.829s133.221 -227.829 297.551 -227.829zM591.876 724.05l-96.832 10.9541l-21.9072 52.6328l96.832 -10.9541z" />
    <glyph glyph-name="Oacute" unicode="&#xd3;" horiz-adv-x="1085" 
d="M542.562 725.32c272.039 0 492.572 -168.854 492.562 -377.141c0 -208.287 -220.522 -377.141 -492.562 -377.141s-492.562 168.854 -492.562 377.141s220.522 377.141 492.562 377.141zM542.561 120.361c164.341 0 297.562 101.991 297.551 227.829
c0 125.827 -133.221 227.829 -297.551 227.829s-297.551 -102.002 -297.551 -227.829s133.21 -227.829 297.551 -227.829zM611.976 787.637l-21.9072 -52.6328l-96.8213 -10.9541l21.9072 52.6328z" />
    <glyph glyph-name="Ocircumflex" unicode="&#xd4;" horiz-adv-x="1085" 
d="M542.562 725.32c272.039 0 492.563 -168.854 492.563 -377.141s-220.534 -377.141 -492.562 -377.141s-492.562 168.854 -492.562 377.141s220.522 377.141 492.562 377.141zM542.563 120.361c164.341 0 297.551 101.991 297.551 227.829
c0 125.827 -133.221 227.829 -297.551 227.829s-297.551 -102.002 -297.551 -227.829s133.21 -227.829 297.551 -227.829zM616.721 724.05l-74.1572 8.39062l-74.1572 -8.39062l21.9072 52.6328l52.25 10.9541l52.25 -10.9541z" />
    <glyph glyph-name="Otilde" unicode="&#xd5;" horiz-adv-x="1085" 
d="M583.573 723.919c252.837 -15.9707 451.562 -178.033 451.562 -375.739c0 -208.287 -220.522 -377.141 -492.562 -377.141s-492.562 168.854 -492.562 377.141s220.522 377.141 492.562 377.141c1.88379 0 3.73535 -0.0986328 5.61914 -0.109375
c-4.79785 1.07324 -9.72754 2.53027 -14.7773 4.5127c-30.1562 11.8633 -64.6172 -5.67383 -64.6172 -5.67383l16.168 52.6328s27.418 18.2383 57.7822 5.49902c30.3203 -12.7178 54.3418 3.63672 57.3428 5.29102l16.2441 -52.8848
c-2.93555 -1.56641 -15.1602 -8.09473 -32.7627 -10.6689zM542.563 120.361c164.341 0 297.562 101.991 297.551 227.829c0 125.827 -133.221 227.829 -297.551 227.829s-297.551 -102.002 -297.551 -227.829s133.221 -227.829 297.551 -227.829z" />
    <glyph glyph-name="Odieresis" unicode="&#xd6;" horiz-adv-x="1085" 
d="M614.156 721.312c238.104 -26.5518 420.98 -183.467 420.97 -373.122c0 -208.287 -220.534 -377.141 -492.562 -377.141s-492.562 168.854 -492.562 377.141c0 189.655 182.886 346.569 420.979 373.121c-18.3262 3.66992 -32.0078 17.7021 -32.0078 34.5381
c0 19.6289 18.5557 35.5449 41.4385 35.5449s41.4385 -15.916 41.4385 -35.5449c0 -14.2617 -9.84766 -26.4756 -23.9893 -32.1387c14.7441 1.01855 29.6309 1.62109 44.7139 1.62109s29.9805 -0.602539 44.7139 -1.62109c-14.1416 5.65234 -24 17.877 -24 32.1387
c0 19.6289 18.5557 35.5449 41.4385 35.5449s41.4385 -15.916 41.4385 -35.5449c0 -16.8359 -13.6816 -30.8564 -32.0078 -34.5371zM542.575 120.36c164.33 0 297.551 101.991 297.562 227.829c0 125.827 -133.231 227.829 -297.562 227.829
s-297.551 -102.002 -297.551 -227.829s133.221 -227.829 297.551 -227.829z" />
    <glyph glyph-name="multiply" unicode="&#xd7;" horiz-adv-x="358" 
d="M357.61 431.82l-83.5801 -83.5703l83.5801 -83.5703l-95.2305 -95.2402l-83.5801 83.5801l-83.5703 -83.5801l-95.2305 95.2402l83.5801 83.5703l-83.5801 83.5703l95.2305 95.2305l83.5703 -83.5596l83.5801 83.5596z" />
    <glyph glyph-name="Oslash" unicode="&#xd8;" horiz-adv-x="1085" 
d="M914.171 595.572c75.2744 -66.2266 120.952 -152.696 120.952 -247.393c0 -208.287 -220.522 -377.141 -492.562 -377.141c-78.8682 0 -153.344 14.2725 -219.429 39.499l-10.5049 -10.4062h-243.361l101.695 100.655
c-75.2744 66.2266 -120.963 152.696 -120.963 247.393c0 208.287 220.522 377.141 492.562 377.141c78.8789 0 153.365 -14.2725 219.461 -39.5098l10.5264 10.417h243.318zM245 348.18c0 -46.3457 18.1299 -89.4385 49.1836 -125.422l344.531 341.016
c-30.1777 7.89746 -62.5029 12.2354 -96.1641 12.2354c-164.33 0 -297.551 -102.002 -297.551 -227.829zM542.562 120.361c164.33 0 297.551 101.991 297.551 227.829c0 46.3457 -18.1289 89.4385 -49.1719 125.411l-344.51 -341.016
c30.167 -7.88672 62.4805 -12.2246 96.1309 -12.2246z" />
    <glyph glyph-name="Ugrave" unicode="&#xd9;" horiz-adv-x="1029" 
d="M784.883 696.129h193.609v-369.396c0 -81.7598 -36.1367 -157.013 -96.7334 -217.062c-43.8701 -43.8701 -99.1875 -77.1045 -156.729 -99.6143c-132.99 -52.0195 -288.579 -52.0195 -421.569 0c-57.5957 22.5322 -112.814 55.7002 -156.729 99.6143
c-60.5859 60.0488 -96.7334 135.302 -96.7334 217.062v369.396h193.62v-359.845c3.5166 -51.3301 22.3896 -93.5898 56.6318 -126.77c109.703 -108.235 318.297 -108.235 428 0c34.2422 33.1797 53.1152 75.4287 56.6318 126.77v359.845zM532.09 724.05l-96.8213 10.9541
l-21.9072 52.6328l96.8213 -10.9541z" />
    <glyph glyph-name="Uacute" unicode="&#xda;" horiz-adv-x="1029" 
d="M784.883 696.129h193.609v-369.396c0 -81.7598 -36.1367 -157.013 -96.7334 -217.062c-43.8701 -43.8701 -99.1875 -77.1045 -156.729 -99.6143c-132.99 -52.0195 -288.579 -52.0195 -421.569 0c-57.5957 22.5322 -112.814 55.7002 -156.729 99.6143
c-60.5859 60.0488 -96.7334 135.302 -96.7334 217.062v369.396h193.62v-359.845c3.5166 -51.3301 22.3896 -93.5898 56.6318 -126.77c109.703 -108.235 318.297 -108.235 428 0c34.2422 33.1797 53.1152 75.4287 56.6318 126.77v359.845zM598.591 787.638l-21.9072 -52.6328
l-96.832 -10.9541l21.9072 52.6328z" />
    <glyph glyph-name="Ucircumflex" unicode="&#xdb;" horiz-adv-x="1029" 
d="M784.883 696.129h193.609v-369.396c0 -81.7598 -36.1367 -157.013 -96.7334 -217.062c-43.8701 -43.8701 -99.1875 -77.1045 -156.729 -99.6143c-132.99 -52.0195 -288.579 -52.0195 -421.569 0c-57.5957 22.5322 -112.814 55.7002 -156.729 99.6143
c-60.5967 60.0488 -96.7334 135.302 -96.7334 217.062v369.396h193.62v-359.845c3.5166 -51.3301 22.3896 -93.5898 56.6318 -126.77c109.703 -108.235 318.297 -108.235 428 0c34.2422 33.1797 53.1152 75.4287 56.6318 126.77v359.845zM588.415 724.05l-74.1562 8.39062
l-74.1689 -8.39062l21.9072 52.6328l52.2607 10.9541l52.25 -10.9541z" />
    <glyph glyph-name="Udieresis" unicode="&#xdc;" horiz-adv-x="1028" 
d="M784.883 696.129h193.609v-369.396c0 -81.7598 -36.1367 -157.013 -96.7334 -217.062c-43.8701 -43.8701 -99.1875 -77.1045 -156.729 -99.6143c-132.99 -52.0195 -288.579 -52.0195 -421.569 0c-57.5957 22.5322 -112.814 55.7002 -156.729 99.6143
c-60.5967 60.0488 -96.7334 135.302 -96.7334 217.062v369.396h193.62v-359.845c3.50488 -51.3301 22.3896 -93.5898 56.6318 -126.77c109.703 -108.235 318.297 -108.235 428 0c34.2422 33.1797 53.1152 75.4287 56.6318 126.77v359.845zM573.967 720.304
c-22.8857 0 -41.4385 15.9141 -41.4385 35.5449s18.5527 35.5449 41.4385 35.5449s41.4385 -15.9141 41.4385 -35.5449s-18.5527 -35.5449 -41.4385 -35.5449zM449.662 720.304c-22.8857 0 -41.4385 15.9141 -41.4385 35.5449s18.5527 35.5449 41.4385 35.5449
s41.4385 -15.9141 41.4385 -35.5449s-18.5527 -35.5449 -41.4385 -35.5449z" />
    <glyph glyph-name="Yacute" unicode="&#xdd;" horiz-adv-x="951" 
d="M951.47 696.13l-381.021 -449.4v-246.7h-189.42v246.7l-381.03 449.4h224.41l251.33 -296.4l251.32 296.4h224.41zM570.449 787.64l-21.9004 -52.6396l-96.8398 -10.9502l21.9102 52.6299z" />
    <glyph glyph-name="Thorn" unicode="&#xde;" horiz-adv-x="915" 
d="M579.257 558.362c157.647 0 285.447 -94.1494 285.458 -210.282c0 -98.2451 -91.4756 -180.728 -215.09 -203.818c-17.9531 -4.05273 -37.5938 -6.45117 -59.5449 -6.45117h-350.655v-137.777h-189.425v696.096h189.425v-137.767h339.832zM589.062 282.127
c47.4961 0 86.0098 29.5303 86.0098 65.9629c0 36.4219 -38.5029 65.9531 -86.0098 65.9531l-349.636 -0.678711v-130.559z" />
    <glyph glyph-name="germandbls" unicode="&#xdf;" 
d="M874.233 362.419c52.4473 -38.2949 85.1787 -92.2744 85.1787 -152.148c0 -116.133 -122.946 -210.271 -274.624 -210.271h-255.937v144.317h254.918c47.4961 0 86.0098 29.5312 86.0098 65.9639c0 36.4219 -38.5029 65.9531 -86.0098 65.9531h-254.918v144.317h233.744
c41.9531 4.39258 74.3213 31.9082 74.3213 65.2842c0 36.4219 -38.5029 65.9531 -86.0098 65.9531h-411.481v-551.789h-189.425v696.096h601.925c151.678 0 274.624 -94.1377 274.635 -210.271c0 -46.127 -19.4434 -88.7373 -52.3271 -123.406z" />
    <glyph glyph-name="agrave" unicode="&#xe0;" 
d="M554.44 724.01l-96.8301 10.9502l-21.9102 52.6396l96.8301 -10.9502zM601.79 696.1l407.431 -696.1h-194.33l-81.0801 138.51h-458.4l-81.0801 -138.51h-194.33l407.42 696.1h194.37zM358.57 280.57h292.08l-146.04 249.49z" />
    <glyph glyph-name="aacute" unicode="&#xe1;" 
d="M574.03 787.6l-21.9102 -52.6396l-96.8203 -10.9502l21.9004 52.6396zM601.8 696.1l407.421 -696.1h-194.33l-81.0801 138.51h-458.4l-81.0801 -138.51h-194.33l407.43 696.1h194.37zM358.57 280.57h292.08l-146.04 249.49z" />
    <glyph glyph-name="acircumflex" unicode="&#xe2;" 
d="M578.77 724.01l-74.1699 8.38965l-74.1602 -8.38965l21.9102 52.6396l52.25 10.9502l52.2598 -10.9502zM601.79 696.1l407.431 -696.1h-194.33l-81.0801 138.51h-458.4l-81.0801 -138.51h-194.33l407.42 696.1h194.37zM358.561 280.57h292.08l-146.04 249.49z" />
    <glyph glyph-name="atilde" unicode="&#xe3;" 
d="M601.79 696.1l407.431 -696.1h-194.33l-81.0801 138.51h-458.4l-81.0801 -138.51h-194.33l407.42 696.1h194.37zM358.561 280.57h292.08l-146.04 249.49zM492.051 729.681c-30.1602 11.8604 -64.6104 -5.66113 -64.6104 -5.66113l16.1699 52.6299
s27.4102 18.2402 57.7803 5.5c30.3203 -12.7197 54.3398 3.64062 57.3398 5.29102l16.25 -52.9004c-5.28027 -2.7998 -40.3701 -21.6094 -82.9297 -4.85938z" />
    <glyph glyph-name="adieresis" unicode="&#xe4;" 
d="M601.79 696.1l407.431 -696.109h-194.33l-81.0801 138.51h-458.4l-81.0801 -138.5h-194.33l407.42 696.1h194.37zM358.57 280.57h292.08l-146.04 249.49zM566.761 720.261c-22.8799 0 -41.4395 15.9199 -41.4395 35.54c0 19.6299 18.5596 35.5498 41.4395 35.5498
c22.8896 0 41.4395 -15.9199 41.4395 -35.5498c0 -19.6201 -18.5498 -35.54 -41.4395 -35.54zM442.461 720.261c-22.8799 0 -41.4395 15.9199 -41.4395 35.54c0 19.6299 18.5596 35.5498 41.4395 35.5498s41.4395 -15.9199 41.4395 -35.5498
c0 -19.6201 -18.5596 -35.54 -41.4395 -35.54z" />
    <glyph glyph-name="aring" unicode="&#xe5;" 
d="M601.79 696.1l407.431 -696.1h-194.33l-81.0801 138.51h-458.4l-81.0801 -138.51h-194.33l407.42 696.1h194.37zM358.57 280.57h292.08l-146.04 249.49zM504.61 720.261c-46.8604 0 -84.8486 26.4297 -84.8389 59.04c0 32.6104 37.9902 59.04 84.8398 59.04
s84.8398 -26.4297 84.8398 -59.04s-37.9805 -59.04 -84.8408 -59.04zM504.612 802.211c-22.3896 0 -40.5312 -10.2598 -40.5312 -22.9102s18.1504 -22.9004 40.5303 -22.9004s40.5303 10.25 40.5303 22.9004s-18.1396 22.9102 -40.5293 22.9102z" />
    <glyph glyph-name="ae" unicode="&#xe6;" horiz-adv-x="1369" 
d="M1319.31 551.1l-625.27 0.000976562v-130.56h530.56v-144.98h-530.56v-130.57h625.27v-144.99h-814.7v138.51h-229.2l-81.0801 -138.51h-194.33l407.41 696.1h911.9v-145zM358.571 280.57h146.04v249.49z" />
    <glyph glyph-name="ccedilla" unicode="&#xe7;" horiz-adv-x="1018" 
d="M542.573 -28.957c-4.90723 0 -9.76953 0.177734 -14.6436 0.320312l-7.7334 -20.1113c6.95605 1.00781 14.0869 1.71973 21.5244 1.71973c54.3096 0 98.3438 -28.3818 98.3438 -63.4014s-44.0234 -63.4014 -98.3438 -63.4014
c-48.0986 0 -88.1133 22.2578 -96.6465 51.6689l41.5918 17.252c9.92383 -15.6309 28.4688 -23.8467 55.0537 -23.8467s48.1309 8.90527 48.1309 19.9033c0 10.9863 -17.6689 19.9023 -48.1318 19.9023h-86.3818l24.3066 63.1816
c-242.299 23.6709 -429.643 182.009 -429.643 373.964c0 208.287 220.522 377.141 492.562 377.141c181.418 0 339.811 -75.1436 425.283 -186.938l-168.82 -74.7051c-51.7354 67.2021 -147.188 112.321 -256.452 112.321c-164.33 0 -297.551 -102.002 -297.551 -227.829
s133.221 -227.829 297.551 -227.829c109.265 0 204.717 45.1191 256.463 112.332l168.82 -74.7051c-85.4727 -111.795 -243.876 -186.938 -425.283 -186.938z" />
    <glyph glyph-name="egrave" unicode="&#xe8;" horiz-adv-x="915" 
d="M864.704 551.144l-625.278 -0.000976562v-130.559h530.561v-144.996h-530.561v-130.559h625.278v-144.996h-814.704v696.096h814.704v-144.985zM506.667 724.049l-96.8213 10.9541l-21.9072 52.6328l96.8213 -10.9541z" />
    <glyph glyph-name="eacute" unicode="&#xe9;" horiz-adv-x="915" 
d="M864.704 551.144l-625.278 -0.000976562v-130.559h530.561v-144.996h-530.561v-130.559h625.278v-144.996h-814.704v696.096h814.704v-144.985zM526.768 787.637l-21.9072 -52.6328l-96.832 -10.9541l21.9072 52.6328z" />
    <glyph glyph-name="ecircumflex" unicode="&#xea;" horiz-adv-x="915" 
d="M864.704 551.144l-625.278 -0.000976562v-130.559h530.571v-144.996h-530.571v-130.559h625.278v-144.996h-814.704v696.096h814.704v-144.985zM531.521 724.049l-74.168 8.39062l-74.1572 -8.39062l21.9072 52.6328l52.25 10.9541l52.2607 -10.9541z" />
    <glyph glyph-name="edieresis" unicode="&#xeb;" horiz-adv-x="915" 
d="M864.704 551.144l-625.278 -0.000976562v-130.559h530.561v-144.996h-530.561v-130.559h625.278v-144.996h-814.704v696.096h814.704v-144.985zM519.505 720.292c-22.8828 0 -41.4385 15.9268 -41.4385 35.5557s18.5557 35.5449 41.4385 35.5449
s41.4385 -15.9268 41.4385 -35.5557s-18.5557 -35.5449 -41.4385 -35.5449zM395.2 720.292c-22.8936 0 -41.4385 15.9268 -41.4385 35.5557s18.5557 35.5449 41.4385 35.5449s41.4385 -15.9268 41.4385 -35.5557s-18.5557 -35.5449 -41.4385 -35.5449z" />
    <glyph glyph-name="igrave" unicode="&#xec;" horiz-adv-x="289" 
d="M239.425 0.0332031h-189.425v696.096h189.425v-696.096zM194.032 724.05l-96.832 10.9541l-21.9072 52.6328l96.832 -10.9541z" />
    <glyph glyph-name="iacute" unicode="&#xed;" horiz-adv-x="289" 
d="M239.425 0.0332031h-189.425v696.096h189.425v-696.096zM214.121 787.637l-21.9072 -52.6328l-96.8213 -10.9541l21.9072 52.6328z" />
    <glyph glyph-name="icircumflex" unicode="&#xee;" horiz-adv-x="289" 
d="M239.425 0.0332031h-189.425v696.096h189.425v-696.096zM218.876 724.05l-74.1562 8.39062l-74.1689 -8.39062l21.9072 52.6328l52.2607 10.9541l52.25 -10.9541z" />
    <glyph glyph-name="idieresis" unicode="&#xef;" horiz-adv-x="307" 
d="M248.309 0.0332031h-189.425v696.096h189.425v-696.096zM215.743 720.304c-22.8857 0 -41.4385 15.9141 -41.4385 35.5449s18.5527 35.5449 41.4385 35.5449s41.4385 -15.9141 41.4385 -35.5449s-18.5527 -35.5449 -41.4385 -35.5449zM91.4385 720.304
c-22.8857 0 -41.4385 15.9141 -41.4385 35.5449s18.5527 35.5449 41.4385 35.5449s41.4385 -15.9141 41.4385 -35.5449s-18.5527 -35.5449 -41.4385 -35.5449z" />
    <glyph glyph-name="eth" unicode="&#xf0;" horiz-adv-x="1017" 
d="M511.512 696.106c251.052 0 454.575 -155.829 454.586 -348.059c0 -192.218 -203.522 -348.047 -454.574 -348.047h-454.574v275.456h-56.9492v144.996h56.9492v275.653h454.562zM511.513 145.16c146.354 0 264.997 90.8398 265.008 202.909
c0 112.047 -118.642 202.887 -264.996 202.887h-264.995v-130.504h113.887v-144.985h-113.888v-130.307h264.984z" />
    <glyph glyph-name="ntilde" unicode="&#xf1;" horiz-adv-x="907" 
d="M667.742 696.228h189.425v-696.096h-195.121l-422.621 452.8v-452.8h-189.425v696.096h199.13l418.612 -448.506v448.506zM444.426 729.725c-30.1562 11.8633 -64.6064 -5.67383 -64.6064 -5.66309l16.168 52.6328s27.4062 18.2383 57.7812 5.49902
c30.3203 -12.7178 54.3311 3.63672 57.3438 5.29102l16.2441 -52.8965c-5.2793 -2.80371 -40.3643 -21.6113 -82.9307 -4.86328z" />
    <glyph glyph-name="ograve" unicode="&#xf2;" horiz-adv-x="1085" 
d="M542.562 725.32c272.028 0 492.562 -168.854 492.562 -377.141s-220.522 -377.141 -492.562 -377.141c-272.028 0 -492.562 168.854 -492.562 377.141s220.522 377.141 492.562 377.141zM542.562 120.361c164.33 0 297.551 101.991 297.551 227.829
c0 125.827 -133.21 227.829 -297.551 227.829c-164.33 0 -297.551 -102.002 -297.551 -227.829s133.221 -227.829 297.551 -227.829zM591.876 724.05l-96.832 10.9541l-21.9072 52.6328l96.832 -10.9541z" />
    <glyph glyph-name="oacute" unicode="&#xf3;" horiz-adv-x="1085" 
d="M542.562 725.32c272.039 0 492.572 -168.854 492.562 -377.141c0 -208.287 -220.522 -377.141 -492.562 -377.141s-492.562 168.854 -492.562 377.141s220.522 377.141 492.562 377.141zM542.561 120.361c164.341 0 297.562 101.991 297.551 227.829
c0 125.827 -133.221 227.829 -297.551 227.829s-297.551 -102.002 -297.551 -227.829s133.21 -227.829 297.551 -227.829zM611.976 787.637l-21.9072 -52.6328l-96.8213 -10.9541l21.9072 52.6328z" />
    <glyph glyph-name="ocircumflex" unicode="&#xf4;" horiz-adv-x="1085" 
d="M542.562 725.32c272.039 0 492.563 -168.854 492.563 -377.141s-220.534 -377.141 -492.562 -377.141s-492.562 168.854 -492.562 377.141s220.522 377.141 492.562 377.141zM542.563 120.361c164.341 0 297.551 101.991 297.551 227.829
c0 125.827 -133.221 227.829 -297.551 227.829s-297.551 -102.002 -297.551 -227.829s133.21 -227.829 297.551 -227.829zM616.721 724.05l-74.1572 8.39062l-74.1572 -8.39062l21.9072 52.6328l52.25 10.9541l52.25 -10.9541z" />
    <glyph glyph-name="otilde" unicode="&#xf5;" horiz-adv-x="1085" 
d="M583.573 723.919c252.837 -15.9707 451.562 -178.033 451.562 -375.739c0 -208.287 -220.522 -377.141 -492.562 -377.141s-492.562 168.854 -492.562 377.141s220.522 377.141 492.562 377.141c1.88379 0 3.73535 -0.0986328 5.61914 -0.109375
c-4.79785 1.07324 -9.72754 2.53027 -14.7773 4.5127c-30.1562 11.8633 -64.6172 -5.67383 -64.6172 -5.67383l16.168 52.6328s27.418 18.2383 57.7822 5.49902c30.3203 -12.7178 54.3418 3.63672 57.3428 5.29102l16.2441 -52.8848
c-2.93555 -1.56641 -15.1602 -8.09473 -32.7627 -10.6689zM542.563 120.361c164.341 0 297.562 101.991 297.551 227.829c0 125.827 -133.221 227.829 -297.551 227.829s-297.551 -102.002 -297.551 -227.829s133.221 -227.829 297.551 -227.829z" />
    <glyph glyph-name="odieresis" unicode="&#xf6;" horiz-adv-x="1085" 
d="M614.156 721.312c238.104 -26.5518 420.98 -183.467 420.97 -373.122c0 -208.287 -220.534 -377.141 -492.562 -377.141s-492.562 168.854 -492.562 377.141c0 189.655 182.886 346.569 420.979 373.121c-18.3262 3.66992 -32.0078 17.7021 -32.0078 34.5381
c0 19.6289 18.5557 35.5449 41.4385 35.5449s41.4385 -15.916 41.4385 -35.5449c0 -14.2617 -9.84766 -26.4756 -23.9893 -32.1387c14.7441 1.01855 29.6309 1.62109 44.7139 1.62109s29.9805 -0.602539 44.7139 -1.62109c-14.1416 5.65234 -24 17.877 -24 32.1387
c0 19.6289 18.5557 35.5449 41.4385 35.5449s41.4385 -15.916 41.4385 -35.5449c0 -16.8359 -13.6816 -30.8564 -32.0078 -34.5371zM542.575 120.36c164.33 0 297.551 101.991 297.562 227.829c0 125.827 -133.231 227.829 -297.562 227.829
s-297.551 -102.002 -297.551 -227.829s133.221 -227.829 297.551 -227.829z" />
    <glyph glyph-name="divide" unicode="&#xf7;" horiz-adv-x="371" 
d="M225.97 415.59h145.079v-134.68h-145.09c18.6201 -11.0303 30.8301 -29.4404 30.8301 -50.3203c0 -33.7695 -31.9102 -61.1494 -71.2598 -61.1494c-39.3604 0 -71.2705 27.3799 -71.2705 61.1494c0 20.8799 12.2197 39.29 30.8301 50.3203h-145.09v134.68h145.11
c-18.6299 11.0303 -30.8398 29.4404 -30.8398 50.3203c0 33.7695 31.9004 61.1396 71.2705 61.1396c39.3496 0 71.2598 -27.3701 71.2598 -61.1396c0 -20.8799 -12.2197 -39.29 -30.8301 -50.3203z" />
    <glyph glyph-name="oslash" unicode="&#xf8;" horiz-adv-x="1085" 
d="M914.171 595.572c75.2744 -66.2266 120.952 -152.696 120.952 -247.393c0 -208.287 -220.522 -377.141 -492.562 -377.141c-78.8682 0 -153.344 14.2725 -219.429 39.499l-10.5049 -10.4062h-243.361l101.695 100.655
c-75.2744 66.2266 -120.963 152.696 -120.963 247.393c0 208.287 220.522 377.141 492.562 377.141c78.8789 0 153.365 -14.2725 219.461 -39.5098l10.5264 10.417h243.318zM245 348.18c0 -46.3457 18.1299 -89.4385 49.1836 -125.422l344.531 341.016
c-30.1777 7.89746 -62.5029 12.2354 -96.1641 12.2354c-164.33 0 -297.551 -102.002 -297.551 -227.829zM542.562 120.361c164.33 0 297.551 101.991 297.551 227.829c0 46.3457 -18.1289 89.4385 -49.1719 125.411l-344.51 -341.016
c30.167 -7.88672 62.4805 -12.2246 96.1309 -12.2246z" />
    <glyph glyph-name="ugrave" unicode="&#xf9;" horiz-adv-x="1029" 
d="M784.883 696.129h193.609v-369.396c0 -81.7598 -36.1367 -157.013 -96.7334 -217.062c-43.8701 -43.8701 -99.1875 -77.1045 -156.729 -99.6143c-132.99 -52.0195 -288.579 -52.0195 -421.569 0c-57.5957 22.5322 -112.814 55.7002 -156.729 99.6143
c-60.5859 60.0488 -96.7334 135.302 -96.7334 217.062v369.396h193.62v-359.845c3.5166 -51.3301 22.3896 -93.5898 56.6318 -126.77c109.703 -108.235 318.297 -108.235 428 0c34.2422 33.1797 53.1152 75.4287 56.6318 126.77v359.845zM532.09 724.05l-96.8213 10.9541
l-21.9072 52.6328l96.8213 -10.9541z" />
    <glyph glyph-name="uacute" unicode="&#xfa;" horiz-adv-x="1029" 
d="M784.883 696.129h193.609v-369.396c0 -81.7598 -36.1367 -157.013 -96.7334 -217.062c-43.8701 -43.8701 -99.1875 -77.1045 -156.729 -99.6143c-132.99 -52.0195 -288.579 -52.0195 -421.569 0c-57.5957 22.5322 -112.814 55.7002 -156.729 99.6143
c-60.5859 60.0488 -96.7334 135.302 -96.7334 217.062v369.396h193.62v-359.845c3.5166 -51.3301 22.3896 -93.5898 56.6318 -126.77c109.703 -108.235 318.297 -108.235 428 0c34.2422 33.1797 53.1152 75.4287 56.6318 126.77v359.845zM598.591 787.638l-21.9072 -52.6328
l-96.832 -10.9541l21.9072 52.6328z" />
    <glyph glyph-name="ucircumflex" unicode="&#xfb;" horiz-adv-x="1029" 
d="M784.883 696.129h193.609v-369.396c0 -81.7598 -36.1367 -157.013 -96.7334 -217.062c-43.8701 -43.8701 -99.1875 -77.1045 -156.729 -99.6143c-132.99 -52.0195 -288.579 -52.0195 -421.569 0c-57.5957 22.5322 -112.814 55.7002 -156.729 99.6143
c-60.5967 60.0488 -96.7334 135.302 -96.7334 217.062v369.396h193.62v-359.845c3.5166 -51.3301 22.3896 -93.5898 56.6318 -126.77c109.703 -108.235 318.297 -108.235 428 0c34.2422 33.1797 53.1152 75.4287 56.6318 126.77v359.845zM588.415 724.05l-74.1562 8.39062
l-74.1689 -8.39062l21.9072 52.6328l52.2607 10.9541l52.25 -10.9541z" />
    <glyph glyph-name="udieresis" unicode="&#xfc;" horiz-adv-x="1028" 
d="M784.883 696.129h193.609v-369.396c0 -81.7598 -36.1367 -157.013 -96.7334 -217.062c-43.8701 -43.8701 -99.1875 -77.1045 -156.729 -99.6143c-132.99 -52.0195 -288.579 -52.0195 -421.569 0c-57.5957 22.5322 -112.814 55.7002 -156.729 99.6143
c-60.5967 60.0488 -96.7334 135.302 -96.7334 217.062v369.396h193.62v-359.845c3.50488 -51.3301 22.3896 -93.5898 56.6318 -126.77c109.703 -108.235 318.297 -108.235 428 0c34.2422 33.1797 53.1152 75.4287 56.6318 126.77v359.845zM573.967 720.304
c-22.8857 0 -41.4385 15.9141 -41.4385 35.5449s18.5527 35.5449 41.4385 35.5449s41.4385 -15.9141 41.4385 -35.5449s-18.5527 -35.5449 -41.4385 -35.5449zM449.662 720.304c-22.8857 0 -41.4385 15.9141 -41.4385 35.5449s18.5527 35.5449 41.4385 35.5449
s41.4385 -15.9141 41.4385 -35.5449s-18.5527 -35.5449 -41.4385 -35.5449z" />
    <glyph glyph-name="yacute" unicode="&#xfd;" horiz-adv-x="951" 
d="M951.47 696.13l-381.021 -449.4v-246.7h-189.42v246.7l-381.03 449.4h224.41l251.33 -296.4l251.32 296.4h224.41zM570.449 787.64l-21.9004 -52.6396l-96.8398 -10.9502l21.9102 52.6299z" />
    <glyph glyph-name="thorn" unicode="&#xfe;" horiz-adv-x="915" 
d="M579.257 558.362c157.647 0 285.447 -94.1494 285.458 -210.282c0 -98.2451 -91.4756 -180.728 -215.09 -203.818c-17.9531 -4.05273 -37.5938 -6.45117 -59.5449 -6.45117h-350.655v-137.777h-189.425v696.096h189.425v-137.767h339.832zM589.062 282.127
c47.4961 0 86.0098 29.5303 86.0098 65.9629c0 36.4219 -38.5029 65.9531 -86.0098 65.9531l-349.636 -0.678711v-130.559z" />
    <glyph glyph-name="ydieresis" unicode="&#xff;" horiz-adv-x="951" 
d="M951.47 696.13l-381.021 -449.4v-246.7h-189.42v246.7l-381.03 449.4h224.41l251.33 -296.4l251.32 296.4h224.41zM537.89 720.3c-22.8896 0 -41.4395 15.9199 -41.4395 35.5498s18.5498 35.54 41.4395 35.54c22.8799 0 41.4395 -15.9102 41.4395 -35.54
s-18.5596 -35.5498 -41.4395 -35.5498zM413.58 720.3c-22.8799 0 -41.4297 15.9199 -41.4297 35.5498s18.5498 35.54 41.4297 35.54c22.8896 0 41.4395 -15.9102 41.4395 -35.54s-18.5498 -35.5498 -41.4395 -35.5498z" />
    <glyph glyph-name="Amacron" unicode="&#x100;" 
d="M601.79 696.1l407.431 -696.1h-194.33l-81.0801 138.51h-458.4l-81.0801 -138.51h-194.33l407.42 696.1h194.37zM358.561 280.57h292.08l-146.04 249.49zM578.371 724.021h-147.53v63.5801h147.53v-63.5801z" />
    <glyph glyph-name="amacron" unicode="&#x101;" 
d="M601.79 696.1l407.431 -696.1h-194.33l-81.0801 138.51h-458.4l-81.0801 -138.51h-194.33l407.42 696.1h194.37zM358.561 280.57h292.08l-146.04 249.49zM578.371 724.021h-147.53v63.5801h147.53v-63.5801z" />
    <glyph glyph-name="Cacute" unicode="&#x106;" horiz-adv-x="1018" 
d="M799.024 232.687l168.82 -74.7051c-85.4727 -111.795 -243.876 -186.938 -425.282 -186.938c-272.028 0 -492.562 168.854 -492.562 377.141s220.534 377.141 492.562 377.141c181.406 0 339.799 -75.1436 425.271 -186.928l-168.82 -74.7051
c-51.7354 67.2021 -147.188 112.321 -256.452 112.321c-164.33 0 -297.551 -102.002 -297.551 -227.829s133.221 -227.829 297.551 -227.829c109.265 0 204.717 45.1191 256.463 112.332zM611.976 787.642l-21.9072 -52.6328l-96.8213 -10.9541l21.9072 52.6328z" />
    <glyph glyph-name="cacute" unicode="&#x107;" horiz-adv-x="1018" 
d="M799.024 232.687l168.82 -74.7051c-85.4727 -111.795 -243.876 -186.938 -425.282 -186.938c-272.028 0 -492.562 168.854 -492.562 377.141s220.534 377.141 492.562 377.141c181.406 0 339.799 -75.1436 425.271 -186.928l-168.82 -74.7051
c-51.7354 67.2021 -147.188 112.321 -256.452 112.321c-164.33 0 -297.551 -102.002 -297.551 -227.829s133.221 -227.829 297.551 -227.829c109.265 0 204.717 45.1191 256.463 112.332zM611.976 787.642l-21.9072 -52.6328l-96.8213 -10.9541l21.9072 52.6328z" />
    <glyph glyph-name="Ccaron" unicode="&#x10c;" horiz-adv-x="1018" 
d="M799.035 232.687l168.821 -74.7061c-85.4727 -111.795 -243.876 -186.938 -425.283 -186.938c-272.028 0 -492.562 168.854 -492.562 377.141c0 206.863 217.555 374.742 487.02 377.031l-46.707 9.79297l-21.9072 52.6328l74.1572 -8.37988l74.1572 8.39062
l-21.9072 -52.6328l-46.8604 -9.8252c179.128 -1.47852 335.264 -76.1182 419.882 -186.796l-168.82 -74.7051c-51.7354 67.2021 -147.188 112.321 -256.452 112.321c-164.33 0 -297.551 -102.002 -297.551 -227.829s133.221 -227.829 297.551 -227.829
c109.265 0 204.717 45.1191 256.463 112.332z" />
    <glyph glyph-name="ccaron" unicode="&#x10d;" horiz-adv-x="1018" 
d="M799.035 232.687l168.821 -74.7061c-85.4727 -111.795 -243.876 -186.938 -425.283 -186.938c-272.028 0 -492.562 168.854 -492.562 377.141c0 206.863 217.555 374.742 487.02 377.031l-46.707 9.79297l-21.9072 52.6328l74.1572 -8.37988l74.1572 8.39062
l-21.9072 -52.6328l-46.8604 -9.8252c179.128 -1.47852 335.264 -76.1182 419.882 -186.796l-168.82 -74.7051c-51.7354 67.2021 -147.188 112.321 -256.452 112.321c-164.33 0 -297.551 -102.002 -297.551 -227.829s133.221 -227.829 297.551 -227.829
c109.265 0 204.717 45.1191 256.463 112.332z" />
    <glyph glyph-name="Emacron" unicode="&#x112;" horiz-adv-x="915" 
d="M864.704 551.144l-625.278 -0.000976562v-130.559h530.561v-144.996h-530.561v-130.559h625.278v-144.996h-814.704v696.096h814.704v-144.985zM531.116 724.049h-147.537v63.5869h147.537v-63.5869z" />
    <glyph glyph-name="emacron" unicode="&#x113;" horiz-adv-x="915" 
d="M864.704 551.144l-625.278 -0.000976562v-130.559h530.561v-144.996h-530.561v-130.559h625.278v-144.996h-814.704v696.096h814.704v-144.985zM531.116 724.049h-147.537v63.5869h147.537v-63.5869z" />
    <glyph glyph-name="Ecaron" unicode="&#x11a;" horiz-adv-x="915" 
d="M864.704 551.144l-625.278 -0.000976562v-130.559h530.571v-144.996h-530.571v-130.559h625.278v-144.996h-814.704v696.096h814.704v-144.985zM405.103 735.003l-21.9072 52.6328l74.1572 -8.39062l74.1572 8.39062l-21.9072 -52.6328l-52.25 -10.9541z" />
    <glyph glyph-name="ecaron" unicode="&#x11b;" horiz-adv-x="915" 
d="M864.704 551.144l-625.278 -0.000976562v-130.559h530.571v-144.996h-530.571v-130.559h625.278v-144.996h-814.704v696.096h814.704v-144.985zM405.103 735.003l-21.9072 52.6328l74.1572 -8.39062l74.1572 8.39062l-21.9072 -52.6328l-52.25 -10.9541z" />
    <glyph glyph-name="Imacron" unicode="&#x12a;" horiz-adv-x="289" 
d="M239.425 0.0332031h-189.425v696.096h189.425v-696.096zM218.481 724.05h-147.537v63.5869h147.537v-63.5869z" />
    <glyph glyph-name="imacron" unicode="&#x12b;" horiz-adv-x="289" 
d="M239.425 0.0332031h-189.425v696.096h189.425v-696.096zM218.481 724.05h-147.537v63.5869h147.537v-63.5869z" />
    <glyph glyph-name="dotlessi" unicode="&#x131;" horiz-adv-x="217" 
d="M166.725 0.000976562h-116.725v562.962h116.725v-562.962z" />
    <glyph glyph-name="Lslash" unicode="&#x141;" horiz-adv-x="823" 
d="M241.906 144.985l530.562 0.000976562v-144.985h-719.985v195.176l-72.4814 125.531l72.4814 41.8438v333.545h189.425v-223.766l49.7852 29.0273l72.4922 -125.575l-122.278 -71.2656v-159.532z" />
    <glyph glyph-name="lslash" unicode="&#x142;" horiz-adv-x="823" 
d="M241.906 144.985l530.562 0.000976562v-144.985h-719.985v195.176l-72.4814 125.531l72.4814 41.8438v333.545h189.425v-223.766l49.7852 29.0273l72.4922 -125.575l-122.278 -71.2656v-159.532z" />
    <glyph glyph-name="Nacute" unicode="&#x143;" horiz-adv-x="907" 
d="M667.731 696.096h189.425v-696.096h-195.121l-422.61 452.8v-452.8h-189.425v696.096h199.119l418.612 -448.506v448.506zM522.998 787.506l-21.9072 -52.6328l-96.832 -10.9541l21.9072 52.6328z" />
    <glyph glyph-name="nacute" unicode="&#x144;" horiz-adv-x="907" 
d="M667.731 696.228h189.425v-696.096h-195.121l-422.61 452.8v-452.8h-189.425v696.096h199.119l418.612 -448.506v448.506zM522.998 787.638l-21.9072 -52.6328l-96.832 -10.9541l21.9072 52.6328z" />
    <glyph glyph-name="Ncaron" unicode="&#x147;" horiz-adv-x="907" 
d="M667.742 696.096h189.425v-696.096h-195.121l-422.61 452.8v-452.8h-189.425v696.096h199.119l418.612 -448.506v448.506zM401.333 734.872l-21.9082 52.6328l74.1572 -8.39062l74.1689 8.39062l-21.9072 -52.6328l-52.2607 -10.9541z" />
    <glyph glyph-name="ncaron" unicode="&#x148;" horiz-adv-x="907" 
d="M667.742 696.228h189.425v-696.096h-195.121l-422.61 452.8v-452.8h-189.425v696.096h199.119l418.612 -448.506v448.506zM401.333 735.004l-21.9082 52.6328l74.1572 -8.39062l74.1689 8.39062l-21.9072 -52.6328l-52.2607 -10.9541z" />
    <glyph glyph-name="Omacron" unicode="&#x14c;" horiz-adv-x="1085" 
d="M581.306 724.05c253.91 -15.1387 453.819 -177.573 453.819 -375.871c0 -208.287 -220.534 -377.141 -492.562 -377.141s-492.562 168.854 -492.562 377.141c0 198.298 199.919 360.732 453.829 375.871h-35.0303v63.5869h147.537v-63.5869h-35.0303zM542.562 120.361
c164.341 0 297.562 101.991 297.551 227.829c0 125.827 -133.221 227.829 -297.551 227.829s-297.551 -102.002 -297.551 -227.829s133.221 -227.829 297.551 -227.829z" />
    <glyph glyph-name="omacron" unicode="&#x14d;" horiz-adv-x="1085" 
d="M581.306 724.05c253.91 -15.1387 453.819 -177.573 453.819 -375.871c0 -208.287 -220.534 -377.141 -492.562 -377.141s-492.562 168.854 -492.562 377.141c0 198.298 199.919 360.732 453.829 375.871h-35.0303v63.5869h147.537v-63.5869h-35.0303zM542.562 120.361
c164.341 0 297.562 101.991 297.551 227.829c0 125.827 -133.221 227.829 -297.551 227.829s-297.551 -102.002 -297.551 -227.829s133.221 -227.829 297.551 -227.829z" />
    <glyph glyph-name="OE" unicode="&#x152;" horiz-adv-x="1705" 
d="M1654.83 551.144l-625.278 -0.000976562v-130.559h530.571v-144.996h-530.571v-130.559h625.278v-145.018h-814.704v47.6494c-82.6797 -48.0654 -185.744 -76.6328 -297.562 -76.6328c-272.028 0 -492.562 168.854 -492.562 377.141s220.534 377.141 492.562 377.141
c111.817 0 214.882 -28.5674 297.562 -76.6328v47.4521h814.704v-144.985zM542.573 120.36c164.33 0 297.551 101.991 297.562 227.829c0 125.827 -133.221 227.829 -297.562 227.829c-164.33 0 -297.551 -102.002 -297.551 -227.829s133.221 -227.829 297.551 -227.829z
" />
    <glyph glyph-name="oe" unicode="&#x153;" horiz-adv-x="1705" 
d="M1654.83 551.144l-625.278 -0.000976562v-130.559h530.571v-144.996h-530.571v-130.559h625.278v-145.018h-814.704v47.6494c-82.6797 -48.0654 -185.744 -76.6328 -297.562 -76.6328c-272.028 0 -492.562 168.854 -492.562 377.141s220.534 377.141 492.562 377.141
c111.817 0 214.882 -28.5674 297.562 -76.6328v47.4521h814.704v-144.985zM542.573 120.36c164.33 0 297.551 101.991 297.562 227.829c0 125.827 -133.221 227.829 -297.562 227.829c-164.33 0 -297.551 -102.002 -297.551 -227.829s133.221 -227.829 297.551 -227.829z
" />
    <glyph glyph-name="Racute" unicode="&#x154;" horiz-adv-x="915" 
d="M590.068 275.555l-0.919922 -0.000976562l275.555 -275.544h-214.871l-275.555 275.544h-134.853v-275.555h-189.425v696.096h529.257c157.647 0 285.446 -94.1377 285.446 -210.271c0 -98.2451 -91.4648 -180.728 -215.09 -203.818
c-17.9531 -4.05273 -37.5938 -6.45117 -59.5449 -6.45117zM239.425 420.55l349.625 -0.679688c47.4961 0 86.0098 29.5312 86.0098 65.9639c0 36.4219 -38.5029 65.9531 -86.0098 65.9531l-349.625 -0.678711v-130.559zM517.313 788.204l-21.9072 -52.6328
l-96.8213 -10.9541l21.9072 52.6328z" />
    <glyph glyph-name="racute" unicode="&#x155;" horiz-adv-x="915" 
d="M590.068 275.555l-0.919922 -0.000976562l275.555 -275.544h-214.871l-275.555 275.544h-134.853v-275.555h-189.425v696.096h529.257c157.647 0 285.446 -94.1377 285.446 -210.271c0 -98.2451 -91.4648 -180.728 -215.09 -203.818
c-17.9531 -4.05273 -37.5938 -6.45117 -59.5449 -6.45117zM239.425 420.55l349.625 -0.679688c47.4961 0 86.0098 29.5312 86.0098 65.9639c0 36.4219 -38.5029 65.9531 -86.0098 65.9531l-349.625 -0.678711v-130.559zM517.313 788.204l-21.9072 -52.6328
l-96.8213 -10.9541l21.9072 52.6328z" />
    <glyph glyph-name="Rcaron" unicode="&#x158;" horiz-adv-x="915" 
d="M590.08 275.555l-0.931641 -0.000976562l275.555 -275.555h-214.871l-275.555 275.555h-134.853v-275.555h-189.425v696.096h529.269c157.647 0 285.446 -94.1377 285.446 -210.271c0 -98.2451 -91.4756 -180.728 -215.09 -203.818
c-17.9531 -4.05273 -37.5938 -6.45117 -59.5449 -6.45117zM239.425 420.55l349.636 -0.679688c47.4961 0 86.0098 29.5312 86.0098 65.9639c0 36.4219 -38.5029 65.9531 -86.0098 65.9531l-349.636 -0.678711v-130.559zM364.2 734.969l-21.9082 52.6445l74.1689 -8.39062
l74.1572 8.39062l-21.9072 -52.6445l-52.25 -10.9541z" />
    <glyph glyph-name="rcaron" unicode="&#x159;" horiz-adv-x="915" 
d="M590.08 275.555l-0.931641 -0.000976562l275.555 -275.555h-214.871l-275.555 275.555h-134.853v-275.555h-189.425v696.096h529.269c157.647 0 285.446 -94.1377 285.446 -210.271c0 -98.2451 -91.4756 -180.728 -215.09 -203.818
c-17.9531 -4.05273 -37.5938 -6.45117 -59.5449 -6.45117zM239.425 420.55l349.636 -0.679688c47.4961 0 86.0098 29.5312 86.0098 65.9639c0 36.4219 -38.5029 65.9531 -86.0098 65.9531l-349.636 -0.678711v-130.559zM364.2 734.969l-21.9082 52.6445l74.1689 -8.39062
l74.1572 8.39062l-21.9072 -52.6445l-52.25 -10.9541z" />
    <glyph glyph-name="Sacute" unicode="&#x15a;" horiz-adv-x="1041" 
d="M573.89 423.651c312.798 -15.7627 413.52 -109.464 416.631 -214.489c2.94629 -99.1982 -104.27 -227.687 -438.701 -237.61c-289.511 -8.58789 -464.521 118.006 -501.818 160.102l163.684 77.3018c46.6523 -48.9531 190.258 -85.8242 344.061 -81.2568
c146.431 4.33789 234.872 37.5283 233.656 78.4844c-1.15039 38.6455 -36.6514 76.4033 -295.326 73.6211c-271.974 -2.9248 -413.509 102.9 -416.608 207.554c-1.27051 43.1367 17.8984 124.229 152.696 182.525c77.3232 33.4424 178.975 53.4004 286.005 55.0869
c50.9463 0.986328 101.389 -2.5625 149.454 -10.2412c108.465 -17.3291 210.982 -62.3271 297.66 -129.792c9.45312 -7.36133 17.9092 -14.5029 24.2734 -20.8779l-164.373 -77.915c-9.69434 7.77734 -120.219 90.6211 -313.007 84.9033
c-116.943 -3.47266 -235.081 -29.9375 -233.58 -80.709c2.02637 -68.2969 219.712 -62.875 295.294 -66.6865zM590.836 787.635l-21.9072 -52.6328l-96.8213 -10.9541l21.9072 52.6328z" />
    <glyph glyph-name="sacute" unicode="&#x15b;" horiz-adv-x="1041" 
d="M573.89 423.651c312.798 -15.7627 413.52 -109.464 416.631 -214.489c2.94629 -99.1982 -104.27 -227.687 -438.701 -237.61c-289.511 -8.58789 -464.521 118.006 -501.818 160.102l163.684 77.3018c46.6523 -48.9531 190.258 -85.8242 344.061 -81.2568
c146.431 4.33789 234.872 37.5283 233.656 78.4844c-1.15039 38.6455 -36.6514 76.4033 -295.326 73.6211c-271.974 -2.9248 -413.509 102.9 -416.608 207.554c-1.27051 43.1367 17.8984 124.229 152.696 182.525c77.3232 33.4424 178.975 53.4004 286.005 55.0869
c50.9463 0.986328 101.389 -2.5625 149.454 -10.2412c108.465 -17.3291 210.982 -62.3271 297.66 -129.792c9.45312 -7.36133 17.9092 -14.5029 24.2734 -20.8779l-164.373 -77.915c-9.69434 7.77734 -120.219 90.6211 -313.007 84.9033
c-116.943 -3.47266 -235.081 -29.9375 -233.58 -80.709c2.02637 -68.2969 219.712 -62.875 295.294 -66.6865zM590.836 787.635l-21.9072 -52.6328l-96.8213 -10.9541l21.9072 52.6328z" />
    <glyph glyph-name="Scircumflex" unicode="&#x15c;" horiz-adv-x="1041" 
d="M573.89 423.651c312.798 -15.7627 413.519 -109.464 416.641 -214.489c2.94629 -99.1982 -104.27 -227.687 -438.701 -237.61c-289.511 -8.58789 -464.521 118.006 -501.818 160.102l163.684 77.3018c46.6523 -48.9531 190.258 -85.8242 344.061 -81.2568
c146.42 4.33789 234.861 37.5283 233.646 78.4844c-1.15039 38.6455 -36.6514 76.4033 -295.326 73.6211c-271.974 -2.9248 -413.509 102.9 -416.608 207.554c-1.28125 43.1367 17.8877 124.229 152.696 182.525c77.3232 33.4424 178.975 53.4004 286.005 55.0869
c50.9463 0.986328 101.389 -2.5625 149.454 -10.2412c108.465 -17.3291 210.982 -62.3271 297.66 -129.792c9.45312 -7.36133 17.9092 -14.5029 24.2734 -20.8779l-164.373 -77.915c-9.69434 7.77734 -120.229 90.6211 -313.006 84.9033
c-116.943 -3.47266 -235.092 -29.9375 -233.58 -80.709c2.02637 -68.2969 219.712 -62.875 295.294 -66.6865zM594.45 724.048l-74.1572 8.39062l-74.1572 -8.39062l21.9072 52.6328l52.25 10.9541l52.25 -10.9541z" />
    <glyph glyph-name="scircumflex" unicode="&#x15d;" horiz-adv-x="1041" 
d="M573.89 423.651c312.798 -15.7627 413.519 -109.464 416.641 -214.489c2.94629 -99.1982 -104.27 -227.687 -438.701 -237.61c-289.511 -8.58789 -464.521 118.006 -501.818 160.102l163.684 77.3018c46.6523 -48.9531 190.258 -85.8242 344.061 -81.2568
c146.42 4.33789 234.861 37.5283 233.646 78.4844c-1.15039 38.6455 -36.6514 76.4033 -295.326 73.6211c-271.974 -2.9248 -413.509 102.9 -416.608 207.554c-1.28125 43.1367 17.8877 124.229 152.696 182.525c77.3232 33.4424 178.975 53.4004 286.005 55.0869
c50.9463 0.986328 101.389 -2.5625 149.454 -10.2412c108.465 -17.3291 210.982 -62.3271 297.66 -129.792c9.45312 -7.36133 17.9092 -14.5029 24.2734 -20.8779l-164.373 -77.915c-9.69434 7.77734 -120.229 90.6211 -313.006 84.9033
c-116.943 -3.47266 -235.092 -29.9375 -233.58 -80.709c2.02637 -68.2969 219.712 -62.875 295.294 -66.6865zM594.45 724.048l-74.1572 8.39062l-74.1572 -8.39062l21.9072 52.6328l52.25 10.9541l52.25 -10.9541z" />
    <glyph glyph-name="Scaron" unicode="&#x160;" horiz-adv-x="1041" 
d="M573.89 423.651c312.798 -15.7627 413.518 -109.464 416.629 -214.5c2.94629 -99.1982 -104.27 -227.687 -438.701 -237.61c-289.511 -8.58789 -464.521 118.006 -501.818 160.102l163.684 77.3018c46.6523 -48.9531 190.258 -85.8242 344.061 -81.2568
c146.42 4.33789 234.861 37.5283 233.646 78.4844c-1.15039 38.6455 -36.6514 76.4033 -295.326 73.6211c-271.974 -2.9248 -413.509 102.9 -416.608 207.554c-1.28125 43.1367 17.8877 124.229 152.696 182.525c76.8525 33.2451 177.748 53.126 284.055 55.0205
l-48.1641 10.0996l-21.9072 52.6328l74.1572 -8.39062l74.1689 8.39062l-21.9072 -52.6328l-47.9014 -10.0449c48.7227 0.581055 96.9414 -2.86914 142.97 -10.2188c108.465 -17.3291 210.982 -62.3271 297.66 -129.792c9.45312 -7.36133 17.9092 -14.5029 24.2734 -20.8779
l-164.373 -77.915c-9.69434 7.77734 -120.229 90.6211 -313.006 84.9033c-116.943 -3.47266 -235.092 -29.9375 -233.58 -80.709c2.02637 -68.2969 219.712 -62.875 295.294 -66.6865z" />
    <glyph glyph-name="scaron" unicode="&#x161;" horiz-adv-x="1041" 
d="M573.89 423.651c312.798 -15.7627 413.518 -109.464 416.629 -214.5c2.94629 -99.1982 -104.27 -227.687 -438.701 -237.61c-289.511 -8.58789 -464.521 118.006 -501.818 160.102l163.684 77.3018c46.6523 -48.9531 190.258 -85.8242 344.061 -81.2568
c146.42 4.33789 234.861 37.5283 233.646 78.4844c-1.15039 38.6455 -36.6514 76.4033 -295.326 73.6211c-271.974 -2.9248 -413.509 102.9 -416.608 207.554c-1.28125 43.1367 17.8877 124.229 152.696 182.525c76.8525 33.2451 177.748 53.126 284.055 55.0205
l-48.1641 10.0996l-21.9072 52.6328l74.1572 -8.39062l74.1689 8.39062l-21.9072 -52.6328l-47.9014 -10.0449c48.7227 0.581055 96.9414 -2.86914 142.97 -10.2188c108.465 -17.3291 210.982 -62.3271 297.66 -129.792c9.45312 -7.36133 17.9092 -14.5029 24.2734 -20.8779
l-164.373 -77.915c-9.69434 7.77734 -120.229 90.6211 -313.006 84.9033c-116.943 -3.47266 -235.092 -29.9375 -233.58 -80.709c2.02637 -68.2969 219.712 -62.875 295.294 -66.6865z" />
    <glyph glyph-name="Tcaron" unicode="&#x164;" horiz-adv-x="947" 
d="M50 696.129h846.655v-144.985h-328.615v-551.11h-189.425v551.11h-328.615v144.985zM421.083 735.004l-21.9072 52.6328l74.1572 -8.39062l74.1572 8.39062l-21.9072 -52.6328l-52.25 -10.9541z" />
    <glyph glyph-name="tcaron" unicode="&#x165;" horiz-adv-x="947" 
d="M50 696.129h846.655v-144.985h-328.615v-551.11h-189.425v551.11h-328.615v144.985zM421.083 735.004l-21.9072 52.6328l74.1572 -8.39062l74.1572 8.39062l-21.9072 -52.6328l-52.25 -10.9541z" />
    <glyph glyph-name="Umacron" unicode="&#x16a;" horiz-adv-x="1029" 
d="M784.883 696.129h193.609v-369.396c0 -81.7598 -36.1367 -157.013 -96.7334 -217.062c-43.8701 -43.8701 -99.1875 -77.1045 -156.729 -99.6143c-132.99 -52.0195 -288.579 -52.0195 -421.569 0c-57.5957 22.5322 -112.814 55.7002 -156.729 99.6143
c-60.5967 60.0488 -96.7334 135.302 -96.7334 217.062v369.396h193.62v-359.845c3.5166 -51.3301 22.3896 -93.5898 56.6318 -126.77c109.703 -108.235 318.297 -108.235 428 0c34.2422 33.1797 53.1152 75.4287 56.6318 126.77v359.845zM588.021 724.05h-147.537v63.5869
h147.537v-63.5869z" />
    <glyph glyph-name="umacron" unicode="&#x16b;" horiz-adv-x="1029" 
d="M784.883 696.129h193.609v-369.396c0 -81.7598 -36.1367 -157.013 -96.7334 -217.062c-43.8701 -43.8701 -99.1875 -77.1045 -156.729 -99.6143c-132.99 -52.0195 -288.579 -52.0195 -421.569 0c-57.5957 22.5322 -112.814 55.7002 -156.729 99.6143
c-60.5967 60.0488 -96.7334 135.302 -96.7334 217.062v369.396h193.62v-359.845c3.5166 -51.3301 22.3896 -93.5898 56.6318 -126.77c109.703 -108.235 318.297 -108.235 428 0c34.2422 33.1797 53.1152 75.4287 56.6318 126.77v359.845zM588.021 724.05h-147.537v63.5869
h147.537v-63.5869z" />
    <glyph glyph-name="Wcircumflex" unicode="&#x174;" horiz-adv-x="1333" 
d="M1138.81 696.13h194.328l-284.68 -696.1h-194.39l-187.51 458.51l-187.5 -458.51h-194.38l-284.68 696.1h194.33l187.53 -458.49l187.54 458.49h194.34l187.54 -458.49zM728.658 724.05l-74.1602 8.38965l-74.1602 -8.38965l21.9004 52.6299l52.2598 10.96l52.25 -10.96z
" />
    <glyph glyph-name="wcircumflex" unicode="&#x175;" horiz-adv-x="1333" 
d="M1138.81 696.13h194.328l-284.68 -696.1h-194.39l-187.51 458.51l-187.5 -458.51h-194.38l-284.68 696.1h194.33l187.53 -458.49l187.54 458.49h194.34l187.54 -458.49zM728.658 724.05l-74.1602 8.38965l-74.1602 -8.38965l21.9004 52.6299l52.2598 10.96l52.25 -10.96z
" />
    <glyph glyph-name="Ycircumflex" unicode="&#x176;" horiz-adv-x="951" 
d="M951.46 696.13l-381.021 -449.4v-246.7h-189.42v246.7l-381.021 449.4h224.41l251.32 -296.4l251.32 296.4h224.41zM549.89 724.05l-74.1504 8.38965l-74.1699 -8.38965l21.9102 52.6299l52.25 10.96l52.2598 -10.96z" />
    <glyph glyph-name="ycircumflex" unicode="&#x177;" horiz-adv-x="951" 
d="M951.46 696.13l-381.021 -449.4v-246.7h-189.42v246.7l-381.021 449.4h224.41l251.32 -296.4l251.32 296.4h224.41zM549.89 724.05l-74.1504 8.38965l-74.1699 -8.38965l21.9102 52.6299l52.25 10.96l52.2598 -10.96z" />
    <glyph glyph-name="Ydieresis" unicode="&#x178;" horiz-adv-x="951" 
d="M951.47 696.13l-381.021 -449.4v-246.7h-189.42v246.7l-381.03 449.4h224.41l251.33 -296.4l251.32 296.4h224.41zM537.89 720.3c-22.8896 0 -41.4395 15.9199 -41.4395 35.5498s18.5498 35.54 41.4395 35.54c22.8799 0 41.4395 -15.9102 41.4395 -35.54
s-18.5596 -35.5498 -41.4395 -35.5498zM413.58 720.3c-22.8799 0 -41.4297 15.9199 -41.4297 35.5498s18.5498 35.54 41.4297 35.54c22.8896 0 41.4395 -15.9102 41.4395 -35.54s-18.5498 -35.5498 -41.4395 -35.5498z" />
    <glyph glyph-name="Zacute" unicode="&#x179;" horiz-adv-x="872" 
d="M822.203 696.129l-0.000976562 -61.5391l-468.507 -489.561h457.554v-144.996h-761.249v61.5498l468.496 489.561h-457.542v144.985h761.249zM515.089 787.637l-21.9072 -52.6328l-96.8213 -10.9541l21.9072 52.6328z" />
    <glyph glyph-name="zacute" unicode="&#x17a;" horiz-adv-x="872" 
d="M822.203 696.129l-0.000976562 -61.5391l-468.507 -489.561h457.554v-144.996h-761.249v61.5498l468.496 489.561h-457.542v144.985h761.249zM515.089 787.637l-21.9072 -52.6328l-96.8213 -10.9541l21.9072 52.6328z" />
    <glyph glyph-name="Zcaron" unicode="&#x17d;" horiz-adv-x="871" 
d="M353.51 144.832l457.542 1.08496l0.350586 -144.985l-761.249 -1.80762l-0.15332 61.5391l467.335 490.678l-457.542 -1.0957l-0.339844 144.996l761.249 1.80762l0.142578 -61.5391zM382.252 734.884l-22.0391 52.5801l74.1904 -8.21582l74.1357 8.56543
l-21.7764 -52.6885l-52.2393 -11.0742z" />
    <glyph glyph-name="zcaron" unicode="&#x17e;" horiz-adv-x="871" 
d="M353.51 144.832l457.542 1.08496l0.350586 -144.985l-761.249 -1.80762l-0.15332 61.5391l467.335 490.678l-457.542 -1.0957l-0.339844 144.996l761.249 1.80762l0.142578 -61.5391zM382.252 734.884l-22.0391 52.5801l74.1904 -8.21582l74.1357 8.56543
l-21.7764 -52.6885l-52.2393 -11.0742z" />
    <glyph glyph-name="Acaron" unicode="&#x1cd;" 
d="M452.35 734.96l-21.9102 52.6396l74.1602 -8.38965l74.1699 8.38965l-21.9102 -52.6396l-52.2598 -10.9502zM601.789 696.1l407.431 -696.1h-194.33l-81.0801 138.51h-458.4l-81.0801 -138.51h-194.33l407.42 696.1h194.37zM358.56 280.57h292.08l-146.04 249.49z" />
    <glyph glyph-name="acaron" unicode="&#x1ce;" 
d="M452.35 734.96l-21.9102 52.6396l74.1602 -8.38965l74.1699 8.38965l-21.9102 -52.6396l-52.2598 -10.9502zM601.789 696.1l407.431 -696.1h-194.33l-81.0801 138.51h-458.4l-81.0801 -138.51h-194.33l407.42 696.1h194.37zM358.56 280.57h292.08l-146.04 249.49z" />
    <glyph glyph-name="Icaron" unicode="&#x1cf;" horiz-adv-x="289" 
d="M239.425 0.0332031h-189.425v696.096h189.425v-696.096zM92.457 735.004l-21.9072 52.6328l74.1572 -8.39062l74.1572 8.39062l-21.9072 -52.6328l-52.25 -10.9541z" />
    <glyph glyph-name="icaron" unicode="&#x1d0;" horiz-adv-x="289" 
d="M239.425 0.0332031h-189.425v696.096h189.425v-696.096zM92.457 735.004l-21.9072 52.6328l74.1572 -8.39062l74.1572 8.39062l-21.9072 -52.6328l-52.25 -10.9541z" />
    <glyph glyph-name="Ocaron" unicode="&#x1d1;" horiz-adv-x="1085" 
d="M548.104 725.211c269.476 -2.28906 487.019 -170.168 487.019 -377.031c0 -208.287 -220.522 -377.141 -492.562 -377.141c-272.028 0 -492.562 168.854 -492.562 377.141c0 206.863 217.555 374.742 487.02 377.031l-46.707 9.79297l-21.9072 52.6328l74.1572 -8.39062
l74.1572 8.39062l-21.9072 -52.6328zM542.561 120.361c164.33 0 297.551 101.991 297.562 227.829c0 125.827 -133.231 227.829 -297.562 227.829s-297.551 -102.002 -297.551 -227.829s133.221 -227.829 297.551 -227.829z" />
    <glyph glyph-name="ocaron" unicode="&#x1d2;" horiz-adv-x="1085" 
d="M548.104 725.211c269.476 -2.28906 487.019 -170.168 487.019 -377.031c0 -208.287 -220.522 -377.141 -492.562 -377.141c-272.028 0 -492.562 168.854 -492.562 377.141c0 206.863 217.555 374.742 487.02 377.031l-46.707 9.79297l-21.9072 52.6328l74.1572 -8.39062
l74.1572 8.39062l-21.9072 -52.6328zM542.561 120.361c164.33 0 297.551 101.991 297.562 227.829c0 125.827 -133.231 227.829 -297.562 227.829s-297.551 -102.002 -297.551 -227.829s133.221 -227.829 297.551 -227.829z" />
    <glyph glyph-name="Ucaron" unicode="&#x1d3;" horiz-adv-x="1029" 
d="M784.883 696.129h193.609v-369.396c0 -81.7598 -36.1367 -157.013 -96.7334 -217.062c-43.8701 -43.8701 -99.1875 -77.1045 -156.729 -99.6143c-132.99 -52.0195 -288.579 -52.0195 -421.569 0c-57.5957 22.5322 -112.814 55.7002 -156.729 99.6143
c-60.5967 60.0488 -96.7334 135.302 -96.7334 217.062v369.396h193.62v-359.845c3.5166 -51.3301 22.3896 -93.5898 56.6318 -126.77c109.703 -108.235 318.297 -108.235 428 0c34.2422 33.1797 53.1152 75.4287 56.6318 126.77v359.845zM461.996 735.004l-21.9082 52.6328
l74.1689 -8.39062l74.1572 8.39062l-21.9072 -52.6328l-52.25 -10.9541z" />
    <glyph glyph-name="ucaron" unicode="&#x1d4;" horiz-adv-x="1029" 
d="M784.883 696.129h193.609v-369.396c0 -81.7598 -36.1367 -157.013 -96.7334 -217.062c-43.8701 -43.8701 -99.1875 -77.1045 -156.729 -99.6143c-132.99 -52.0195 -288.579 -52.0195 -421.569 0c-57.5957 22.5322 -112.814 55.7002 -156.729 99.6143
c-60.5967 60.0488 -96.7334 135.302 -96.7334 217.062v369.396h193.62v-359.845c3.5166 -51.3301 22.3896 -93.5898 56.6318 -126.77c109.703 -108.235 318.297 -108.235 428 0c34.2422 33.1797 53.1152 75.4287 56.6318 126.77v359.845zM461.996 735.004l-21.9082 52.6328
l74.1689 -8.39062l74.1572 8.39062l-21.9072 -52.6328l-52.25 -10.9541z" />
    <glyph glyph-name="Gcaron" unicode="&#x1e6;" horiz-adv-x="1085" 
d="M480.99 348.086l554.136 -0.00195312c-0.0214844 -77.4434 -30.6699 -149.355 -83.0078 -209.229l-2.39941 -2.72754c-9.44238 -10.5928 -19.4766 -20.8564 -30.2334 -30.6387l-0.186523 0.131836c-90.3252 -82.1973 -225.441 -134.578 -376.736 -134.578
c-272.028 0 -492.562 168.854 -492.562 377.141c0 206.863 217.555 374.742 487.02 377.031l-46.707 9.79297l-21.9072 52.6328l74.1689 -8.39062l74.1572 8.39062l-21.9072 -52.6328l-46.8604 -9.8252c179.128 -1.48926 335.253 -76.1182 419.871 -186.774
l-168.82 -74.7051c-51.7354 67.2021 -147.188 112.321 -256.452 112.321c-164.33 0 -297.551 -102.002 -297.551 -227.829s133.221 -227.829 297.551 -227.829c112.847 0 211.015 48.0986 261.457 118.981h-323.029v108.739z" />
    <glyph glyph-name="gcaron" unicode="&#x1e7;" horiz-adv-x="1085" 
d="M480.99 348.086l554.136 -0.00195312c-0.0214844 -77.4434 -30.6699 -149.355 -83.0078 -209.229l-2.39941 -2.72754c-9.44238 -10.5928 -19.4766 -20.8564 -30.2334 -30.6387l-0.186523 0.131836c-90.3252 -82.1973 -225.441 -134.578 -376.736 -134.578
c-272.028 0 -492.562 168.854 -492.562 377.141c0 206.863 217.555 374.742 487.02 377.031l-46.707 9.79297l-21.9072 52.6328l74.1689 -8.39062l74.1572 8.39062l-21.9072 -52.6328l-46.8604 -9.8252c179.128 -1.48926 335.253 -76.1182 419.871 -186.774
l-168.82 -74.7051c-51.7354 67.2021 -147.188 112.321 -256.452 112.321c-164.33 0 -297.551 -102.002 -297.551 -227.829s133.221 -227.829 297.551 -227.829c112.847 0 211.015 48.0986 261.457 118.981h-323.029v108.739z" />
    <glyph glyph-name="Kcaron" unicode="&#x1e8;" horiz-adv-x="839" 
d="M456.398 382.541l382.542 -382.542h-236.778l-264.152 264.152l-98.585 -98.585v-165.567h-189.425v696.096h189.425v-293.738l293.738 293.738h236.778zM318.052 734.871l-21.9082 52.6328l74.1689 -8.39062l74.1572 8.39062l-21.9072 -52.6328l-52.25 -10.9541z" />
    <glyph glyph-name="kcaron" unicode="&#x1e9;" horiz-adv-x="839" 
d="M456.398 382.541l382.542 -382.542h-236.778l-264.152 264.152l-98.585 -98.585v-165.567h-189.425v696.096h189.425v-293.738l293.738 293.738h236.778zM318.052 734.871l-21.9082 52.6328l74.1689 -8.39062l74.1572 8.39062l-21.9072 -52.6328l-52.25 -10.9541z" />
    <glyph glyph-name="uni01f8" unicode="&#x1f8;" horiz-adv-x="907" 
d="M667.742 696.096h189.425v-696.096h-195.121l-422.621 452.8v-452.8h-189.425v696.096h199.13l418.612 -448.506v448.506zM488.264 723.919l-96.8213 10.9541l-21.9072 52.6328l96.8213 -10.9541z" />
    <glyph glyph-name="uni01f9" unicode="&#x1f9;" horiz-adv-x="907" 
d="M667.742 696.228h189.425v-696.096h-195.121l-422.621 452.8v-452.8h-189.425v696.096h199.13l418.612 -448.506v448.506zM488.264 724.051l-96.8213 10.9541l-21.9072 52.6328l96.8213 -10.9541z" />
    <glyph glyph-name="uni0232" unicode="&#x232;" horiz-adv-x="951" 
d="M951.46 696.13l-381.021 -449.4v-246.7h-189.42v246.7l-381.02 449.4h224.41l251.33 -296.4l251.31 296.4h224.41zM549.499 724.05h-147.54v63.5898h147.54v-63.5898z" />
    <glyph glyph-name="uni0233" unicode="&#x233;" horiz-adv-x="1051" 
d="M1001.46 696.129l-381.019 -449.403v-246.691h-189.425v246.691l-381.019 449.403h224.411l251.325 -296.4l251.314 296.4h224.411zM599.501 724.051h-147.537v63.5869h147.537v-63.5869z" />
    <glyph glyph-name="circumflex" unicode="&#x2c6;" horiz-adv-x="248" 
d="M198.315 724.046l-74.1572 8.39062l-74.1572 -8.39062l21.9072 52.6445l52.25 10.9541l52.25 -10.9541z" />
    <glyph glyph-name="caron" unicode="&#x2c7;" horiz-adv-x="248" 
d="M124.157 779.253l74.168 8.39062l-21.9072 -52.6445l-52.2607 -10.9541l-52.25 10.9541l-21.9072 52.6445z" />
    <glyph glyph-name="firsttonechinese" unicode="&#x2c9;" horiz-adv-x="198" 
d="M147.54 724.06h-147.54v63.5801h147.54v-63.5801z" />
    <glyph glyph-name="ilde" unicode="&#x2dc;" horiz-adv-x="248" 
d="M181.293 787.469l16.2441 -52.8857c-5.2793 -2.80371 -40.3643 -21.6113 -82.9307 -4.86328c-30.1445 11.8633 -64.6055 -5.67383 -64.6055 -5.67383l16.168 52.6328s27.4062 18.2383 57.7812 5.49902c30.3203 -12.7178 54.3418 3.63672 57.3428 5.29102z" />
    <glyph glyph-name="Macute" unicode="&#x1e3e;" horiz-adv-x="1109" 
d="M864.89 696.096h194.332v-696.096h-189.425v372.453l-218.004 -372.453h-194.376l-217.992 372.453v-372.453h-189.425v696.096h194.332l310.279 -530.068zM624.025 787.506l-21.9072 -52.6328l-96.8213 -10.9541l21.9072 52.6328z" />
    <glyph glyph-name="macute" unicode="&#x1e3f;" horiz-adv-x="1109" 
d="M864.89 696.096h194.332v-696.096h-189.425v372.453l-218.004 -372.453h-194.376l-217.992 372.453v-372.453h-189.425v696.096h194.332l310.279 -530.068zM624.025 787.506l-21.9072 -52.6328l-96.8213 -10.9541l21.9072 52.6328z" />
    <glyph glyph-name="Wgrave" unicode="&#x1e80;" horiz-adv-x="1333" 
d="M1138.82 696.13h194.329l-284.68 -696.1h-194.38l-187.52 458.51l-187.5 -458.51h-194.38l-284.69 696.1h194.34l187.53 -458.49l187.54 458.49h194.34l187.53 -458.49zM707.77 724.05l-96.8301 10.9502l-21.9102 52.6396l96.8301 -10.96z" />
    <glyph glyph-name="wgrave" unicode="&#x1e81;" horiz-adv-x="1333" 
d="M1138.82 696.13h194.329l-284.68 -696.1h-194.38l-187.52 458.51l-187.5 -458.51h-194.38l-284.69 696.1h194.34l187.53 -458.49l187.54 458.49h194.34l187.53 -458.49zM707.77 724.05l-96.8301 10.9502l-21.9102 52.6396l96.8301 -10.96z" />
    <glyph glyph-name="Wacute" unicode="&#x1e82;" horiz-adv-x="1333" 
d="M1138.81 696.13h194.328l-284.68 -696.1h-194.38l-187.51 458.51l-187.51 -458.51h-194.38l-284.68 696.1h194.33l187.54 -458.49l187.53 458.49h194.34l187.54 -458.49zM737.608 787.64l-21.9102 -52.6396l-96.8203 -10.9502l21.9102 52.6299z" />
    <glyph glyph-name="wacute" unicode="&#x1e83;" horiz-adv-x="1333" 
d="M1138.81 696.13h194.328l-284.68 -696.1h-194.38l-187.51 458.51l-187.51 -458.51h-194.38l-284.68 696.1h194.33l187.54 -458.49l187.53 458.49h194.34l187.54 -458.49zM737.608 787.64l-21.9102 -52.6396l-96.8203 -10.9502l21.9102 52.6299z" />
    <glyph glyph-name="Wdieresis" unicode="&#x1e84;" horiz-adv-x="1333" 
d="M1138.81 696.13h194.328l-284.68 -696.1h-194.38l-187.51 458.51l-187.51 -458.51h-194.38l-284.68 696.1h194.33l187.54 -458.49l187.53 458.49h194.34l187.54 -458.49zM728.729 720.3c-22.8896 0 -41.4395 15.9199 -41.4395 35.5498s18.5498 35.54 41.4395 35.54
c22.8799 0 41.4395 -15.9102 41.4395 -35.54s-18.5596 -35.5498 -41.4395 -35.5498zM604.419 720.3c-22.8799 0 -41.4395 15.9199 -41.4395 35.5498s18.5596 35.54 41.4395 35.54c22.8896 0 41.4395 -15.9102 41.4395 -35.54s-18.5498 -35.5498 -41.4395 -35.5498z" />
    <glyph glyph-name="wdieresis" unicode="&#x1e85;" horiz-adv-x="1333" 
d="M1138.81 696.13h194.328l-284.68 -696.1h-194.38l-187.51 458.51l-187.51 -458.51h-194.38l-284.68 696.1h194.33l187.54 -458.49l187.53 458.49h194.34l187.54 -458.49zM728.729 720.3c-22.8896 0 -41.4395 15.9199 -41.4395 35.5498s18.5498 35.54 41.4395 35.54
c22.8799 0 41.4395 -15.9102 41.4395 -35.54s-18.5596 -35.5498 -41.4395 -35.5498zM604.419 720.3c-22.8799 0 -41.4395 15.9199 -41.4395 35.5498s18.5596 35.54 41.4395 35.54c22.8896 0 41.4395 -15.9102 41.4395 -35.54s-18.5498 -35.5498 -41.4395 -35.5498z" />
    <glyph glyph-name="Xdieresis" unicode="&#x1e8c;" horiz-adv-x="947" 
d="M946.6 696.13l-351.63 -348.06l351.63 -348.04h-243.37l-229.94 227.61l-229.93 -227.61h-243.36l351.63 348.04l-351.63 348.06h243.32l229.97 -227.63l229.99 227.63h243.32zM535.46 720.301c-22.8896 0 -41.4395 15.9199 -41.4395 35.5498
s18.5498 35.54 41.4395 35.54c22.8799 0 41.4395 -15.9102 41.4395 -35.54s-18.5596 -35.5498 -41.4395 -35.5498zM411.14 720.301c-22.8799 0 -41.4395 15.9199 -41.4395 35.5498s18.5596 35.54 41.4395 35.54c22.8896 0 41.4395 -15.9102 41.4395 -35.54
s-18.5498 -35.5498 -41.4395 -35.5498z" />
    <glyph glyph-name="xdieresis" unicode="&#x1e8d;" horiz-adv-x="947" 
d="M946.6 696.13l-351.63 -348.06l351.63 -348.04h-243.37l-229.94 227.61l-229.93 -227.61h-243.36l351.63 348.04l-351.63 348.06h243.32l229.97 -227.63l229.99 227.63h243.32zM535.46 720.301c-22.8896 0 -41.4395 15.9199 -41.4395 35.5498
s18.5498 35.54 41.4395 35.54c22.8799 0 41.4395 -15.9102 41.4395 -35.54s-18.5596 -35.5498 -41.4395 -35.5498zM411.14 720.301c-22.8799 0 -41.4395 15.9199 -41.4395 35.5498s18.5596 35.54 41.4395 35.54c22.8896 0 41.4395 -15.9102 41.4395 -35.54
s-18.5498 -35.5498 -41.4395 -35.5498z" />
    <glyph glyph-name="Zcircumflex" unicode="&#x1e90;" horiz-adv-x="872" 
d="M822.203 696.129v-61.5391l-468.496 -489.561h457.542v-144.996h-761.249v61.5498l468.496 489.561h-457.542v144.985h761.249zM510.26 724.05l-74.1572 8.39062l-74.1572 -8.39062l21.9072 52.6328l52.25 10.9541l52.25 -10.9541z" />
    <glyph glyph-name="zcircumflex" unicode="&#x1e91;" horiz-adv-x="872" 
d="M822.203 696.129v-61.5391l-468.496 -489.561h457.542v-144.996h-761.249v61.5498l468.496 489.561h-457.542v144.985h761.249zM510.26 724.05l-74.1572 8.39062l-74.1572 -8.39062l21.9072 52.6328l52.25 10.9541l52.25 -10.9541z" />
    <glyph glyph-name="Ygrave" unicode="&#x1ef2;" horiz-adv-x="951" 
d="M951.46 696.13l-381.021 -449.4v-246.7h-189.42v246.7l-381.021 449.4h224.41l251.32 -296.4l251.32 296.4h224.41zM475.729 724.05l-96.8301 10.9502l-21.9004 52.6396l96.8203 -10.96z" />
    <glyph glyph-name="ygrave" unicode="&#x1ef3;" horiz-adv-x="951" 
d="M951.46 696.13l-381.021 -449.4v-246.7h-189.42v246.7l-381.021 449.4h224.41l251.32 -296.4l251.32 296.4h224.41zM475.729 724.05l-96.8301 10.9502l-21.9004 52.6396l96.8203 -10.96z" />
    <glyph glyph-name="Ytilde" unicode="&#x1ef8;" horiz-adv-x="951" 
d="M466.58 730.37c-30.1602 11.8496 -64.6094 -5.6709 -64.6191 -5.6709l16.1699 52.6299s27.4199 18.2402 57.7803 5.5c30.3203 -12.7197 54.3398 3.62988 57.3496 5.29004l16.25 -52.8896c-5.28027 -2.7998 -40.3604 -21.6094 -82.9307 -4.85938zM951.471 696.1
l-381.031 -449.41v-246.69h-189.42v246.69l-381.02 449.41h224.41l251.33 -296.42l251.32 296.42h224.41z" />
    <glyph glyph-name="ytilde" unicode="&#x1ef9;" horiz-adv-x="951" 
d="M466.58 730.37c-30.1602 11.8496 -64.6094 -5.6709 -64.6191 -5.6709l16.1699 52.6299s27.4199 18.2402 57.7803 5.5c30.3203 -12.7197 54.3398 3.62988 57.3496 5.29004l16.25 -52.8896c-5.28027 -2.7998 -40.3604 -21.6094 -82.9307 -4.85938zM951.471 696.1
l-381.031 -449.41v-246.69h-189.42v246.69l-381.02 449.41h224.41l251.33 -296.42l251.32 296.42h224.41z" />
    <glyph glyph-name="endash" unicode="&#x2013;" horiz-adv-x="481" 
d="M480.6 280.91h-480.6v134.68h480.6v-134.68z" />
    <glyph glyph-name="quoteleft" unicode="&#x2018;" horiz-adv-x="224" 
d="M50 696.097l173.937 -0.000976562v-220.271l-124.425 28.0967z" />
    <glyph glyph-name="quoteright" unicode="&#x2019;" horiz-adv-x="224" 
d="M0 696.1h173.95l-49.5098 -192.18l-124.44 -28.0898v220.27z" />
    <glyph glyph-name="quotesinglbase" unicode="&#x201a;" horiz-adv-x="224" 
d="M0 111.1h173.95l-49.5098 -157.75l-124.44 -23.0703v180.82z" />
    <glyph glyph-name="quoteleftreversed" unicode="&#x201b;" horiz-adv-x="224" 
d="M50 696.097l173.947 0.000976562v-180.815l-124.436 23.0684z" />
    <glyph glyph-name="quotedblleft" unicode="&#x201c;" horiz-adv-x="431" 
d="M256.809 696.096h173.947v-220.271l-124.436 28.0967zM99.5117 503.921l-49.5117 192.175h173.947v-220.271z" />
    <glyph glyph-name="quotedblright" unicode="&#x201d;" horiz-adv-x="431" 
d="M0 475.82v220.279h173.95l-49.5098 -192.18zM206.81 696.1l173.949 -0.000976562l-49.5195 -192.18l-124.43 -28.0996v220.28z" />
    <glyph glyph-name="quotedblbase" unicode="&#x201e;" horiz-adv-x="431" 
d="M0 -69.7197v180.82h173.95l-49.5098 -157.75zM206.81 111.101h173.95l-49.5303 -157.75l-124.42 -23.0703v180.82z" />
    <glyph glyph-name="bullet" unicode="&#x2022;" horiz-adv-x="415" 
d="M198.93 453.55c82.2598 0 148.939 -57.209 148.93 -127.779c0 -70.5703 -66.6797 -127.771 -148.93 -127.771s-148.93 57.21 -148.93 127.77c0 70.5801 66.6797 127.78 148.93 127.78z" />
    <glyph glyph-name="ellipsis" unicode="&#x2026;" horiz-adv-x="671" 
d="M524.81 152.13c52.9404 0 95.8496 -36.8203 95.8398 -82.2207c0 -45.4102 -42.9102 -82.2197 -95.8398 -82.2197s-95.8398 36.7998 -95.8398 82.2197c0 45.4004 42.9102 82.2207 95.8398 82.2207zM310.318 152.13c52.9297 0 95.8496 -36.8203 95.8398 -82.2207
c0 -45.4102 -42.9102 -82.2197 -95.8398 -82.2197s-95.8301 36.7998 -95.8301 82.2197c0 45.4004 42.9004 82.2207 95.8301 82.2207zM95.8379 152.13c52.9199 0 95.8398 -36.8203 95.8301 -82.2207c0 -45.4102 -42.9102 -82.2197 -95.8301 -82.2197
c-52.9297 0 -95.8398 36.7998 -95.8398 82.2197c0 45.4004 42.9102 82.2207 95.8398 82.2207z" />
    <glyph glyph-name="perthousand" unicode="&#x2030;" horiz-adv-x="1050" 
d="M506.16 696.1h166.641l-473.25 -696.1h-166.69zM164.251 415.43c-90.7197 0 -164.25 69.3906 -164.25 154.98c0 85.5996 73.54 154.979 164.25 154.979s164.26 -69.3799 164.26 -154.99c0 -85.5898 -73.5498 -154.97 -164.26 -154.97zM164.251 625.681
c-32.3398 0 -58.5801 -24.75 -58.5703 -55.2695c0 -30.5098 26.2305 -55.2598 58.5703 -55.2598c32.3496 0 58.5693 24.7402 58.5693 55.2598s-26.2197 55.2695 -58.5693 55.2695zM541.421 281.07c90.7002 0 164.25 -69.3799 164.25 -154.979
c0 -85.5898 -73.5498 -154.97 -164.25 -154.97c-90.71 0 -164.26 69.3799 -164.26 154.97c0 85.5996 73.5498 154.979 164.26 154.979zM541.421 70.8203c32.3398 0 58.5703 24.7607 58.5703 55.2705c0 30.5195 -26.2305 55.2695 -58.5703 55.2695
c-32.3496 0 -58.5693 -24.7402 -58.5693 -55.2705c0 -30.5195 26.2197 -55.2695 58.5693 -55.2695zM885.781 281.071c90.7197 0 164.26 -69.3799 164.26 -154.979c0 -85.5898 -73.5498 -154.97 -164.26 -154.97s-164.25 69.3799 -164.25 154.97
c0 85.5996 73.54 154.979 164.25 154.979zM885.781 70.8213c32.3604 0 58.5693 24.7607 58.5693 55.2705c0 30.5195 -26.2197 55.2695 -58.5693 55.2695c-32.3398 0 -58.5703 -24.7402 -58.5703 -55.2705c0 -30.5195 26.2305 -55.2695 58.5703 -55.2695z" />
    <glyph glyph-name="guilsinglleft" unicode="&#x2039;" horiz-adv-x="235" 
d="M234.835 508.204v-134.679l-50.4424 -25.2705l50.4424 -25.2812v-134.678l-184.835 92.6152v134.678z" />
    <glyph glyph-name="guilsinglright" unicode="&#x203a;" horiz-adv-x="235" 
d="M0 508.2l184.85 -92.6094v-134.68l-184.85 -92.6104v134.67l50.4404 25.29l-50.4404 25.2695v134.67z" />
    <glyph glyph-name="fraction" unicode="&#x2044;" horiz-adv-x="423" 
d="M306.65 696.1h116.68l-306.61 -696.1h-116.72z" />
    <glyph glyph-name="Euro" unicode="&#x20ac;" horiz-adv-x="710" 
d="M545.23 269.75l114.722 -50.7588c-58.0898 -75.9805 -165.75 -127.051 -289.04 -127.051c-153.5 0 -282.78 79.1299 -322.271 187h-48.6396v58.3701h36.5098c-0.200195 3.62988 -0.360352 7.28027 -0.360352 10.9502c0 3.59961 0.150391 7.16992 0.350586 10.75h-36.5
v58.3604h48.5596c39.4004 107.98 168.75 187.211 322.35 187.211c123.29 0 230.95 -51.0703 289.04 -127.051l-114.74 -50.7803c-35.1699 45.6699 -100.03 76.3398 -174.3 76.3398c-79.21 0 -147.58 -34.9404 -180.771 -85.7207h276.72v-58.3799h-297.46
c-0.330078 -3.55957 -0.709961 -7.11914 -0.709961 -10.7393c0 -3.7002 0.389648 -7.32031 0.719727 -10.96h297.45v-58.3604h-276.59c33.2305 -50.6699 101.551 -85.5303 180.65 -85.5303c74.2695 0 139.149 30.6797 174.31 76.3496z" />
    <glyph glyph-name="trademark" unicode="&#x2122;" horiz-adv-x="571" 
d="M466.21 635.34h55.041v-197.17h-53.6504v105.5l-61.75 -105.5h-55.0498l-61.75 105.5v-105.5h-53.6504v156.1h-88.6602v-156.1h-53.6504v156.1h-93.0898v41.0703h290.44l87.8799 -150.14z" />
    <glyph glyph-name="minus" unicode="&#x2212;" horiz-adv-x="421" 
d="M371.06 280.91h-371.06v134.68h371.06v-134.68z" />
    <glyph glyph-name="notequal" unicode="&#x2260;" horiz-adv-x="421" 
d="M371.06 373.53h-115.938l-22.2695 -50.5596h138.21v-134.66h-197.53l-24.3096 -55.1797h-116.71l24.3096 55.1797h-56.8203v134.66h116.14l22.2695 50.5596h-138.41v134.67h197.75l24.1201 54.7598h116.68l-24.1201 -54.7598h56.6299v-134.67z" />
    </font>
</defs>
</svg>
